<svg width="100" height="40" viewBox="0 0 100 40" fill="none" xmlns="http://www.w3.org/2000/svg">
<rect width="100" height="40" rx="20" fill="#00B1CC"/>
<path d="M38.334 14.742L43.194 24.786C43.398 25.194 43.5 25.5 43.5 25.704C43.5 26.136 43.152 26.526 42.456 26.874C42.048 27.078 41.724 27.18 41.484 27.18C41.256 27.18 41.064 27.126 40.908 27.018C40.764 26.91 40.656 26.796 40.584 26.676C40.524 26.556 40.434 26.376 40.314 26.136L39.378 24.192H34.392L33.456 26.136C33.336 26.376 33.24 26.55 33.168 26.658C33.108 26.766 33 26.88 32.844 27C32.7 27.108 32.508 27.162 32.268 27.162C32.04 27.162 31.722 27.06 31.314 26.856C30.618 26.52 30.27 26.136 30.27 25.704C30.27 25.5 30.372 25.194 30.576 24.786L35.436 14.724C35.568 14.448 35.766 14.226 36.03 14.058C36.306 13.89 36.594 13.806 36.894 13.806C37.542 13.806 38.022 14.118 38.334 14.742ZM36.876 19.062L35.688 21.528H38.082L36.876 19.062ZM50.117 13.572C50.213 13.392 50.375 13.266 50.603 13.194C50.831 13.122 51.131 13.086 51.503 13.086C51.887 13.086 52.193 13.122 52.421 13.194C52.649 13.266 52.805 13.392 52.889 13.572C52.985 13.752 53.039 13.914 53.051 14.058C53.075 14.19 53.087 14.394 53.087 14.67V25.416C53.087 25.692 53.075 25.902 53.051 26.046C53.039 26.178 52.985 26.328 52.889 26.496C52.709 26.82 52.199 26.982 51.359 26.982C50.531 26.982 50.069 26.688 49.973 26.1C49.469 26.676 48.767 26.964 47.867 26.964C46.787 26.964 45.803 26.496 44.915 25.56C44.027 24.612 43.583 23.514 43.583 22.266C43.583 21.006 44.027 19.902 44.915 18.954C45.815 18.006 46.799 17.532 47.867 17.532C48.755 17.532 49.445 17.832 49.937 18.432V14.652C49.937 14.376 49.943 14.172 49.955 14.04C49.979 13.896 50.033 13.74 50.117 13.572ZM47.201 23.346C47.513 23.67 47.891 23.832 48.335 23.832C48.779 23.832 49.145 23.67 49.433 23.346C49.733 23.022 49.883 22.668 49.883 22.284C49.883 21.888 49.739 21.522 49.451 21.186C49.175 20.85 48.797 20.682 48.317 20.682C47.837 20.682 47.453 20.85 47.165 21.186C46.877 21.51 46.733 21.87 46.733 22.266C46.733 22.662 46.889 23.022 47.201 23.346ZM60.8748 13.572C60.9708 13.392 61.1328 13.266 61.3608 13.194C61.5888 13.122 61.8888 13.086 62.2608 13.086C62.6448 13.086 62.9508 13.122 63.1788 13.194C63.4068 13.266 63.5628 13.392 63.6468 13.572C63.7428 13.752 63.7968 13.914 63.8088 14.058C63.8328 14.19 63.8448 14.394 63.8448 14.67V25.416C63.8448 25.692 63.8328 25.902 63.8088 26.046C63.7968 26.178 63.7428 26.328 63.6468 26.496C63.4668 26.82 62.9568 26.982 62.1168 26.982C61.2888 26.982 60.8268 26.688 60.7308 26.1C60.2268 26.676 59.5248 26.964 58.6248 26.964C57.5448 26.964 56.5608 26.496 55.6728 25.56C54.7848 24.612 54.3408 23.514 54.3408 22.266C54.3408 21.006 54.7848 19.902 55.6728 18.954C56.5728 18.006 57.5568 17.532 58.6248 17.532C59.5128 17.532 60.2028 17.832 60.6948 18.432V14.652C60.6948 14.376 60.7008 14.172 60.7128 14.04C60.7368 13.896 60.7908 13.74 60.8748 13.572ZM57.9588 23.346C58.2708 23.67 58.6488 23.832 59.0928 23.832C59.5368 23.832 59.9028 23.67 60.1908 23.346C60.4908 23.022 60.6408 22.668 60.6408 22.284C60.6408 21.888 60.4968 21.522 60.2088 21.186C59.9328 20.85 59.5548 20.682 59.0748 20.682C58.5948 20.682 58.2108 20.85 57.9228 21.186C57.6348 21.51 57.4908 21.87 57.4908 22.266C57.4908 22.662 57.6468 23.022 57.9588 23.346Z" fill="white"/>
</svg>
