<svg width="100" height="40" viewBox="0 0 100 40" fill="none" xmlns="http://www.w3.org/2000/svg">
<rect width="100" height="40" rx="20" fill="#00B1CC"/>
<path d="M26.818 24.768C26.998 25.2 27.088 25.512 27.088 25.704C27.088 26.16 26.716 26.544 25.972 26.856C25.588 27.024 25.276 27.108 25.036 27.108C24.808 27.108 24.616 27.054 24.46 26.946C24.316 26.826 24.208 26.706 24.136 26.586C24.016 26.358 23.548 25.272 22.732 23.328L22.174 23.364H19.906V25.398C19.906 25.674 19.894 25.884 19.87 26.028C19.858 26.16 19.804 26.316 19.708 26.496C19.54 26.82 19.072 26.982 18.304 26.982C17.464 26.982 16.972 26.76 16.828 26.316C16.756 26.112 16.72 25.8 16.72 25.38V15.39C16.72 15.114 16.726 14.91 16.738 14.778C16.762 14.634 16.822 14.472 16.918 14.292C17.086 13.968 17.554 13.806 18.322 13.806H22.21C23.266 13.806 24.292 14.19 25.288 14.958C25.768 15.33 26.164 15.834 26.476 16.47C26.788 17.106 26.944 17.814 26.944 18.594C26.944 19.95 26.494 21.066 25.594 21.942C25.858 22.578 26.266 23.52 26.818 24.768ZM19.906 20.178H22.21C22.558 20.178 22.906 20.046 23.254 19.782C23.602 19.518 23.776 19.122 23.776 18.594C23.776 18.066 23.602 17.67 23.254 17.406C22.906 17.13 22.546 16.992 22.174 16.992H19.906V20.178ZM36.8679 21.132C36.8679 21.864 36.6819 22.41 36.3099 22.77C35.9499 23.118 35.5479 23.292 35.1039 23.292H30.8379C30.8379 23.628 31.0359 23.91 31.4319 24.138C31.8279 24.366 32.2239 24.48 32.6199 24.48C33.3159 24.48 33.8619 24.408 34.2579 24.264L34.4559 24.192C34.7439 24.06 34.9839 23.994 35.1759 23.994C35.5599 23.994 35.8899 24.264 36.1659 24.804C36.3219 25.128 36.3999 25.404 36.3999 25.632C36.3999 26.7 35.1219 27.234 32.5659 27.234C31.6779 27.234 30.8859 27.084 30.1899 26.784C29.5059 26.472 28.9719 26.064 28.5879 25.56C27.8319 24.588 27.4539 23.502 27.4539 22.302C27.4539 20.79 27.9399 19.584 28.9119 18.684C29.8959 17.772 31.1199 17.316 32.5839 17.316C34.2519 17.316 35.4759 17.904 36.2559 19.08C36.6639 19.704 36.8679 20.388 36.8679 21.132ZM33.0699 21.654C33.5259 21.654 33.7539 21.462 33.7539 21.078C33.7539 20.802 33.6459 20.58 33.4299 20.412C33.2259 20.244 32.9259 20.16 32.5299 20.16C32.1459 20.16 31.7619 20.322 31.3779 20.646C30.9939 20.958 30.8019 21.294 30.8019 21.654H33.0699ZM41.1383 18.774C41.7023 17.922 42.3803 17.496 43.1723 17.496C44.3963 17.496 45.3083 18.018 45.9083 19.062C46.0403 18.882 46.1963 18.696 46.3763 18.504C46.5683 18.3 46.8683 18.084 47.2763 17.856C47.6843 17.616 48.1043 17.496 48.5363 17.496C49.4963 17.496 50.3003 17.868 50.9483 18.612C51.5963 19.344 51.9203 20.562 51.9203 22.266V25.416C51.9203 25.692 51.9083 25.902 51.8843 26.046C51.8723 26.178 51.8183 26.334 51.7223 26.514C51.5663 26.838 51.1043 27 50.3363 27C49.5803 27 49.1183 26.832 48.9503 26.496C48.8663 26.316 48.8123 26.16 48.7883 26.028C48.7763 25.884 48.7703 25.674 48.7703 25.398V22.248C48.7703 21.204 48.3983 20.682 47.6543 20.682C47.2343 20.682 46.9463 20.82 46.7903 21.096C46.6463 21.372 46.5743 21.762 46.5743 22.266V25.416C46.5743 25.704 46.5623 25.914 46.5383 26.046C46.5263 26.178 46.4723 26.334 46.3763 26.514C46.2083 26.838 45.7403 27 44.9723 27C44.2163 27 43.7543 26.832 43.5863 26.496C43.5023 26.316 43.4483 26.16 43.4243 26.028C43.4123 25.884 43.4063 25.674 43.4063 25.398V22.248C43.4063 21.204 43.0343 20.682 42.2903 20.682C41.5703 20.682 41.2103 21.204 41.2103 22.248V25.434C41.2103 25.71 41.1983 25.92 41.1743 26.064C41.1623 26.196 41.1083 26.352 41.0123 26.532C40.8323 26.844 40.3643 27 39.6083 27C38.8523 27 38.3903 26.838 38.2223 26.514C38.1383 26.334 38.0843 26.178 38.0603 26.046C38.0483 25.914 38.0423 25.704 38.0423 25.416V19.08C38.0423 18.804 38.0483 18.6 38.0603 18.468C38.0843 18.324 38.1443 18.168 38.2403 18C38.4203 17.676 38.8463 17.514 39.5183 17.514C40.1903 17.514 40.6283 17.622 40.8323 17.838C41.0363 18.054 41.1383 18.366 41.1383 18.774ZM53.0828 22.266C53.0828 20.826 53.5868 19.638 54.5948 18.702C55.6028 17.766 56.7548 17.298 58.0508 17.298C59.3468 17.298 60.4928 17.766 61.4888 18.702C62.4848 19.626 62.9828 20.808 62.9828 22.248C62.9828 23.244 62.7248 24.132 62.2088 24.912C61.6928 25.68 61.0628 26.25 60.3188 26.622C59.5868 26.982 58.8248 27.162 58.0328 27.162C57.2408 27.162 56.4728 26.97 55.7288 26.586C54.9848 26.19 54.3548 25.614 53.8388 24.858C53.3348 24.09 53.0828 23.226 53.0828 22.266ZM56.8448 23.562C57.2288 23.85 57.6188 23.994 58.0148 23.994C58.4108 23.994 58.8068 23.844 59.2028 23.544C59.5988 23.244 59.7968 22.8 59.7968 22.212C59.7968 21.624 59.6108 21.186 59.2388 20.898C58.8668 20.61 58.4648 20.466 58.0328 20.466C57.6008 20.466 57.1988 20.616 56.8268 20.916C56.4548 21.216 56.2688 21.66 56.2688 22.248C56.2688 22.824 56.4608 23.262 56.8448 23.562ZM73.1589 17.73C73.7829 18.102 74.0949 18.498 74.0949 18.918C74.0949 19.158 73.9749 19.488 73.7349 19.908L70.0089 26.298C69.8889 26.502 69.6969 26.688 69.4329 26.856C69.1689 27.012 68.9049 27.09 68.6409 27.09C68.3889 27.09 68.1429 27.03 67.9029 26.91C67.6749 26.778 67.5129 26.646 67.4169 26.514L67.2549 26.316L63.5109 19.908C63.2709 19.512 63.1509 19.188 63.1509 18.936C63.1509 18.504 63.4629 18.102 64.0869 17.73C64.5429 17.466 64.9029 17.334 65.1669 17.334C65.4309 17.334 65.6349 17.418 65.7789 17.586C65.9349 17.742 66.0969 17.982 66.2649 18.306L68.6229 22.842L70.9809 18.306C71.1129 18.078 71.2089 17.916 71.2689 17.82C71.3409 17.712 71.4489 17.61 71.5929 17.514C71.7369 17.406 71.9289 17.352 72.1689 17.352C72.4089 17.352 72.7389 17.478 73.1589 17.73ZM83.6785 21.132C83.6785 21.864 83.4925 22.41 83.1205 22.77C82.7605 23.118 82.3585 23.292 81.9145 23.292H77.6485C77.6485 23.628 77.8465 23.91 78.2425 24.138C78.6385 24.366 79.0345 24.48 79.4305 24.48C80.1265 24.48 80.6725 24.408 81.0685 24.264L81.2665 24.192C81.5545 24.06 81.7945 23.994 81.9865 23.994C82.3705 23.994 82.7005 24.264 82.9765 24.804C83.1325 25.128 83.2105 25.404 83.2105 25.632C83.2105 26.7 81.9325 27.234 79.3765 27.234C78.4885 27.234 77.6965 27.084 77.0005 26.784C76.3165 26.472 75.7825 26.064 75.3985 25.56C74.6425 24.588 74.2645 23.502 74.2645 22.302C74.2645 20.79 74.7505 19.584 75.7225 18.684C76.7065 17.772 77.9305 17.316 79.3945 17.316C81.0625 17.316 82.2865 17.904 83.0665 19.08C83.4745 19.704 83.6785 20.388 83.6785 21.132ZM79.8805 21.654C80.3365 21.654 80.5645 21.462 80.5645 21.078C80.5645 20.802 80.4565 20.58 80.2405 20.412C80.0365 20.244 79.7365 20.16 79.3405 20.16C78.9565 20.16 78.5725 20.322 78.1885 20.646C77.8045 20.958 77.6125 21.294 77.6125 21.654H79.8805Z" fill="white"/>
</svg>
