<svg width="100" height="40" viewBox="0 0 100 40" fill="none" xmlns="http://www.w3.org/2000/svg">
<rect width="100" height="40" rx="20" fill="#00B1CC"/>
<path d="M25.458 16.47C25.77 17.106 25.926 17.814 25.926 18.594C25.926 19.374 25.77 20.082 25.458 20.718C25.146 21.342 24.744 21.84 24.252 22.212C23.256 22.98 22.224 23.364 21.156 23.364H18.906V25.398C18.906 25.674 18.894 25.884 18.87 26.028C18.858 26.16 18.804 26.316 18.708 26.496C18.54 26.82 18.072 26.982 17.304 26.982C16.464 26.982 15.972 26.76 15.828 26.316C15.756 26.112 15.72 25.8 15.72 25.38V15.39C15.72 15.114 15.726 14.91 15.738 14.778C15.762 14.634 15.822 14.472 15.918 14.292C16.086 13.968 16.554 13.806 17.322 13.806H21.174C22.23 13.806 23.256 14.19 24.252 14.958C24.744 15.33 25.146 15.834 25.458 16.47ZM21.174 20.178C21.534 20.178 21.888 20.046 22.236 19.782C22.584 19.518 22.758 19.122 22.758 18.594C22.758 18.066 22.584 17.67 22.236 17.406C21.888 17.13 21.528 16.992 21.156 16.992H18.906V20.178H21.174ZM26.823 22.266C26.823 20.826 27.327 19.638 28.335 18.702C29.343 17.766 30.495 17.298 31.791 17.298C33.087 17.298 34.233 17.766 35.229 18.702C36.225 19.626 36.723 20.808 36.723 22.248C36.723 23.244 36.465 24.132 35.949 24.912C35.433 25.68 34.803 26.25 34.059 26.622C33.327 26.982 32.565 27.162 31.773 27.162C30.981 27.162 30.213 26.97 29.469 26.586C28.725 26.19 28.095 25.614 27.579 24.858C27.075 24.09 26.823 23.226 26.823 22.266ZM30.585 23.562C30.969 23.85 31.359 23.994 31.755 23.994C32.151 23.994 32.547 23.844 32.943 23.544C33.339 23.244 33.537 22.8 33.537 22.212C33.537 21.624 33.351 21.186 32.979 20.898C32.607 20.61 32.205 20.466 31.773 20.466C31.341 20.466 30.939 20.616 30.567 20.916C30.195 21.216 30.009 21.66 30.009 22.248C30.009 22.824 30.201 23.262 30.585 23.562ZM37.958 26.154C37.73 26.01 37.616 25.782 37.616 25.47C37.616 25.158 37.844 24.684 38.3 24.048C38.432 23.844 38.642 23.742 38.93 23.742C39.23 23.742 39.632 23.892 40.136 24.192C40.64 24.48 41.096 24.624 41.504 24.624C42.236 24.624 42.602 24.48 42.602 24.192C42.602 23.964 42.2 23.796 41.396 23.688C40.64 23.58 39.89 23.298 39.146 22.842C38.798 22.626 38.51 22.29 38.282 21.834C38.054 21.366 37.94 20.814 37.94 20.178C37.94 18.282 39.242 17.334 41.846 17.334C42.698 17.334 43.574 17.538 44.474 17.946C44.894 18.138 45.104 18.378 45.104 18.666C45.104 18.954 44.972 19.308 44.708 19.728C44.444 20.148 44.174 20.358 43.898 20.358C43.754 20.358 43.484 20.268 43.088 20.088C42.704 19.908 42.284 19.818 41.828 19.818C41.12 19.818 40.766 19.95 40.766 20.214C40.766 20.574 41.174 20.808 41.99 20.916C42.782 21 43.55 21.228 44.294 21.6C44.642 21.768 44.93 22.062 45.158 22.482C45.398 22.89 45.518 23.406 45.518 24.03C45.518 24.654 45.398 25.188 45.158 25.632C44.93 26.064 44.606 26.388 44.186 26.604C43.418 26.976 42.452 27.162 41.288 27.162C40.136 27.162 39.026 26.826 37.958 26.154ZM46.6927 19.098C46.6927 18.822 46.6987 18.618 46.7107 18.486C46.7347 18.342 46.7887 18.18 46.8727 18C47.0407 17.688 47.5087 17.532 48.2767 17.532C48.8527 17.532 49.2607 17.634 49.5007 17.838C49.7047 18.006 49.8127 18.264 49.8247 18.612C49.8367 18.732 49.8427 18.906 49.8427 19.134V25.434C49.8427 25.71 49.8307 25.92 49.8067 26.064C49.7947 26.196 49.7407 26.352 49.6447 26.532C49.4887 26.844 49.0267 27 48.2587 27C47.5027 27 47.0407 26.838 46.8727 26.514C46.7887 26.334 46.7347 26.178 46.7107 26.046C46.6987 25.914 46.6927 25.704 46.6927 25.416V19.098ZM49.6447 15.768C49.5607 15.936 49.4047 16.056 49.1767 16.128C48.9487 16.2 48.6427 16.236 48.2587 16.236C47.8867 16.236 47.5867 16.2 47.3587 16.128C47.1307 16.056 46.9687 15.93 46.8727 15.75C46.7887 15.57 46.7347 15.414 46.7107 15.282C46.6987 15.138 46.6927 14.928 46.6927 14.652C46.6927 14.376 46.6987 14.172 46.7107 14.04C46.7347 13.896 46.7887 13.74 46.8727 13.572C47.0407 13.248 47.5087 13.086 48.2767 13.086C49.0327 13.086 49.4887 13.248 49.6447 13.572C49.7407 13.752 49.7947 13.914 49.8067 14.058C49.8307 14.19 49.8427 14.394 49.8427 14.67C49.8427 14.946 49.8307 15.156 49.8067 15.3C49.7947 15.432 49.7407 15.588 49.6447 15.768ZM56.7885 20.7L55.6185 20.628V23.112C55.6185 23.436 55.6665 23.67 55.7625 23.814C55.8705 23.958 56.0625 24.03 56.3385 24.03C56.6265 24.03 56.8425 24.042 56.9865 24.066C57.1425 24.078 57.3045 24.132 57.4725 24.228C57.7485 24.384 57.8865 24.786 57.8865 25.434C57.8865 26.19 57.7185 26.652 57.3825 26.82C57.2025 26.904 57.0405 26.958 56.8965 26.982C56.7645 26.994 56.5665 27 56.3025 27C55.0545 27 54.1065 26.718 53.4585 26.154C52.8105 25.59 52.4865 24.636 52.4865 23.292V20.628C52.2585 20.664 52.0125 20.682 51.7485 20.682C51.4845 20.682 51.2625 20.58 51.0825 20.376C50.9145 20.172 50.8305 19.824 50.8305 19.332C50.8305 18.84 50.8605 18.486 50.9205 18.27C50.9805 18.042 51.0645 17.88 51.1725 17.784C51.3645 17.628 51.6045 17.55 51.8925 17.55L52.4865 17.622V15.768C52.4865 15.492 52.4925 15.288 52.5045 15.156C52.5285 15.024 52.5885 14.88 52.6845 14.724C52.8405 14.424 53.3025 14.274 54.0705 14.274C54.8865 14.274 55.3725 14.496 55.5285 14.94C55.5885 15.132 55.6185 15.438 55.6185 15.858V17.622C56.1465 17.574 56.5425 17.55 56.8065 17.55C57.0825 17.55 57.2865 17.562 57.4185 17.586C57.5625 17.598 57.7245 17.652 57.9045 17.748C58.2165 17.904 58.3725 18.366 58.3725 19.134C58.3725 19.89 58.2105 20.352 57.8865 20.52C57.7065 20.604 57.5445 20.658 57.4005 20.682C57.2685 20.694 57.0645 20.7 56.7885 20.7ZM59.3665 19.098C59.3665 18.822 59.3725 18.618 59.3845 18.486C59.4085 18.342 59.4625 18.18 59.5465 18C59.7145 17.688 60.1825 17.532 60.9505 17.532C61.5265 17.532 61.9345 17.634 62.1745 17.838C62.3785 18.006 62.4865 18.264 62.4985 18.612C62.5105 18.732 62.5165 18.906 62.5165 19.134V25.434C62.5165 25.71 62.5045 25.92 62.4805 26.064C62.4685 26.196 62.4145 26.352 62.3185 26.532C62.1625 26.844 61.7005 27 60.9325 27C60.1765 27 59.7145 26.838 59.5465 26.514C59.4625 26.334 59.4085 26.178 59.3845 26.046C59.3725 25.914 59.3665 25.704 59.3665 25.416V19.098ZM62.3185 15.768C62.2345 15.936 62.0785 16.056 61.8505 16.128C61.6225 16.2 61.3165 16.236 60.9325 16.236C60.5605 16.236 60.2605 16.2 60.0325 16.128C59.8045 16.056 59.6425 15.93 59.5465 15.75C59.4625 15.57 59.4085 15.414 59.3845 15.282C59.3725 15.138 59.3665 14.928 59.3665 14.652C59.3665 14.376 59.3725 14.172 59.3845 14.04C59.4085 13.896 59.4625 13.74 59.5465 13.572C59.7145 13.248 60.1825 13.086 60.9505 13.086C61.7065 13.086 62.1625 13.248 62.3185 13.572C62.4145 13.752 62.4685 13.914 62.4805 14.058C62.5045 14.19 62.5165 14.394 62.5165 14.67C62.5165 14.946 62.5045 15.156 62.4805 15.3C62.4685 15.432 62.4145 15.588 62.3185 15.768ZM63.6844 22.266C63.6844 20.826 64.1884 19.638 65.1964 18.702C66.2044 17.766 67.3564 17.298 68.6524 17.298C69.9484 17.298 71.0944 17.766 72.0904 18.702C73.0864 19.626 73.5844 20.808 73.5844 22.248C73.5844 23.244 73.3264 24.132 72.8104 24.912C72.2944 25.68 71.6644 26.25 70.9204 26.622C70.1884 26.982 69.4264 27.162 68.6344 27.162C67.8424 27.162 67.0744 26.97 66.3304 26.586C65.5864 26.19 64.9564 25.614 64.4404 24.858C63.9364 24.09 63.6844 23.226 63.6844 22.266ZM67.4464 23.562C67.8304 23.85 68.2204 23.994 68.6164 23.994C69.0124 23.994 69.4084 23.844 69.8044 23.544C70.2004 23.244 70.3984 22.8 70.3984 22.212C70.3984 21.624 70.2124 21.186 69.8404 20.898C69.4684 20.61 69.0664 20.466 68.6344 20.466C68.2024 20.466 67.8004 20.616 67.4284 20.916C67.0564 21.216 66.8704 21.66 66.8704 22.248C66.8704 22.824 67.0624 23.262 67.4464 23.562ZM80.0213 17.514C81.2213 17.514 82.2173 17.976 83.0093 18.9C83.8133 19.812 84.2153 20.928 84.2153 22.248V25.416C84.2153 25.692 84.2033 25.902 84.1793 26.046C84.1673 26.178 84.1193 26.328 84.0353 26.496C83.8673 26.82 83.3993 26.982 82.6313 26.982C81.7793 26.982 81.2873 26.76 81.1553 26.316C81.0833 26.112 81.0473 25.806 81.0473 25.398V22.23C81.0473 21.738 80.9033 21.354 80.6153 21.078C80.3393 20.802 79.9613 20.664 79.4813 20.664C79.0133 20.664 78.6293 20.808 78.3293 21.096C78.0413 21.384 77.8973 21.762 77.8973 22.23V25.416C77.8973 25.692 77.8853 25.902 77.8613 26.046C77.8493 26.178 77.7953 26.328 77.6993 26.496C77.5433 26.82 77.0813 26.982 76.3133 26.982C75.5573 26.982 75.0953 26.82 74.9273 26.496C74.8433 26.316 74.7893 26.16 74.7653 26.028C74.7533 25.884 74.7473 25.674 74.7473 25.398V19.026C74.7473 18.762 74.7533 18.564 74.7653 18.432C74.7893 18.288 74.8493 18.132 74.9453 17.964C75.1133 17.664 75.5753 17.514 76.3313 17.514C77.0633 17.514 77.5133 17.652 77.6813 17.928C77.8013 18.132 77.8613 18.378 77.8613 18.666C77.9093 18.582 78.0173 18.462 78.1853 18.306C78.3533 18.15 78.5153 18.024 78.6713 17.928C79.0793 17.652 79.5293 17.514 80.0213 17.514Z" fill="white"/>
</svg>
