<svg width="100" height="40" viewBox="0 0 100 40" fill="none" xmlns="http://www.w3.org/2000/svg">
<rect width="100" height="40" rx="20" fill="#00B1CC"/>
<path d="M38.8582 13.806C39.1342 13.806 39.3382 13.818 39.4702 13.842C39.6142 13.854 39.7702 13.908 39.9382 14.004C40.1182 14.1 40.2442 14.262 40.3162 14.49C40.3882 14.718 40.4242 15.024 40.4242 15.408C40.4242 15.792 40.3882 16.098 40.3162 16.326C40.2442 16.554 40.1182 16.716 39.9382 16.812C39.7582 16.896 39.5962 16.95 39.4522 16.974C39.3202 16.986 39.1102 16.992 38.8222 16.992H33.3142V18.81H36.8602C37.1482 18.81 37.3582 18.822 37.4902 18.846C37.6342 18.858 37.7962 18.912 37.9762 19.008C38.2882 19.188 38.4442 19.662 38.4442 20.43C38.4442 21.27 38.2162 21.768 37.7602 21.924C37.5682 21.984 37.2622 22.014 36.8422 22.014H33.3142V25.416C33.3142 25.704 33.3022 25.914 33.2782 26.046C33.2662 26.178 33.2122 26.334 33.1162 26.514C32.9482 26.838 32.4802 27 31.7122 27C30.8722 27 30.3802 26.772 30.2362 26.316C30.1642 26.124 30.1282 25.818 30.1282 25.398V15.39C30.1282 14.778 30.2422 14.364 30.4702 14.148C30.6982 13.92 31.1302 13.806 31.7662 13.806H38.8582ZM41.2376 19.098C41.2376 18.822 41.2436 18.618 41.2556 18.486C41.2796 18.342 41.3336 18.18 41.4176 18C41.5856 17.688 42.0536 17.532 42.8216 17.532C43.3976 17.532 43.8056 17.634 44.0456 17.838C44.2496 18.006 44.3576 18.264 44.3696 18.612C44.3816 18.732 44.3876 18.906 44.3876 19.134V25.434C44.3876 25.71 44.3756 25.92 44.3516 26.064C44.3396 26.196 44.2856 26.352 44.1896 26.532C44.0336 26.844 43.5716 27 42.8036 27C42.0476 27 41.5856 26.838 41.4176 26.514C41.3336 26.334 41.2796 26.178 41.2556 26.046C41.2436 25.914 41.2376 25.704 41.2376 25.416V19.098ZM44.1896 15.768C44.1056 15.936 43.9496 16.056 43.7216 16.128C43.4936 16.2 43.1876 16.236 42.8036 16.236C42.4316 16.236 42.1316 16.2 41.9036 16.128C41.6756 16.056 41.5136 15.93 41.4176 15.75C41.3336 15.57 41.2796 15.414 41.2556 15.282C41.2436 15.138 41.2376 14.928 41.2376 14.652C41.2376 14.376 41.2436 14.172 41.2556 14.04C41.2796 13.896 41.3336 13.74 41.4176 13.572C41.5856 13.248 42.0536 13.086 42.8216 13.086C43.5776 13.086 44.0336 13.248 44.1896 13.572C44.2856 13.752 44.3396 13.914 44.3516 14.058C44.3756 14.19 44.3876 14.394 44.3876 14.67C44.3876 14.946 44.3756 15.156 44.3516 15.3C44.3396 15.432 44.2856 15.588 44.1896 15.768ZM52.2695 17.622C52.4975 17.694 52.6835 17.82 52.8275 18C52.9835 18.168 53.0615 18.444 53.0615 18.828C53.0615 19.212 52.9475 19.632 52.7195 20.088C52.4915 20.544 52.1615 20.772 51.7295 20.772C51.5135 20.772 51.3035 20.724 51.0995 20.628C50.9075 20.532 50.6495 20.484 50.3255 20.484C50.0015 20.484 49.6955 20.598 49.4075 20.826C49.1315 21.054 48.9935 21.33 48.9935 21.654V25.434C48.9935 25.71 48.9815 25.92 48.9575 26.064C48.9455 26.196 48.8915 26.352 48.7955 26.532C48.6155 26.844 48.1475 27 47.3915 27C46.8155 27 46.4015 26.898 46.1495 26.694C45.9575 26.526 45.8495 26.268 45.8255 25.92C45.8255 25.8 45.8255 25.626 45.8255 25.398V19.08C45.8255 18.804 45.8315 18.6 45.8435 18.468C45.8675 18.324 45.9215 18.168 46.0055 18C46.1735 17.676 46.6415 17.514 47.4095 17.514C48.1295 17.514 48.5795 17.652 48.7595 17.928C48.8915 18.12 48.9575 18.318 48.9575 18.522C49.0175 18.438 49.1015 18.336 49.2095 18.216C49.3295 18.096 49.5755 17.934 49.9475 17.73C50.3195 17.526 50.6435 17.424 50.9195 17.424C51.2075 17.424 51.4475 17.442 51.6395 17.478C51.8315 17.502 52.0415 17.55 52.2695 17.622ZM53.7725 26.154C53.5445 26.01 53.4305 25.782 53.4305 25.47C53.4305 25.158 53.6585 24.684 54.1145 24.048C54.2465 23.844 54.4565 23.742 54.7445 23.742C55.0445 23.742 55.4465 23.892 55.9505 24.192C56.4545 24.48 56.9105 24.624 57.3185 24.624C58.0505 24.624 58.4165 24.48 58.4165 24.192C58.4165 23.964 58.0145 23.796 57.2105 23.688C56.4545 23.58 55.7045 23.298 54.9605 22.842C54.6125 22.626 54.3245 22.29 54.0965 21.834C53.8685 21.366 53.7545 20.814 53.7545 20.178C53.7545 18.282 55.0565 17.334 57.6605 17.334C58.5125 17.334 59.3885 17.538 60.2885 17.946C60.7085 18.138 60.9185 18.378 60.9185 18.666C60.9185 18.954 60.7865 19.308 60.5225 19.728C60.2585 20.148 59.9885 20.358 59.7125 20.358C59.5685 20.358 59.2985 20.268 58.9025 20.088C58.5185 19.908 58.0985 19.818 57.6425 19.818C56.9345 19.818 56.5805 19.95 56.5805 20.214C56.5805 20.574 56.9885 20.808 57.8045 20.916C58.5965 21 59.3645 21.228 60.1085 21.6C60.4565 21.768 60.7445 22.062 60.9725 22.482C61.2125 22.89 61.3325 23.406 61.3325 24.03C61.3325 24.654 61.2125 25.188 60.9725 25.632C60.7445 26.064 60.4205 26.388 60.0005 26.604C59.2325 26.976 58.2665 27.162 57.1025 27.162C55.9505 27.162 54.8405 26.826 53.7725 26.154ZM67.7339 20.7L66.5639 20.628V23.112C66.5639 23.436 66.6119 23.67 66.7079 23.814C66.8159 23.958 67.0079 24.03 67.2839 24.03C67.5719 24.03 67.7879 24.042 67.9319 24.066C68.0879 24.078 68.2499 24.132 68.4179 24.228C68.6939 24.384 68.8319 24.786 68.8319 25.434C68.8319 26.19 68.6639 26.652 68.3279 26.82C68.1479 26.904 67.9859 26.958 67.8419 26.982C67.7099 26.994 67.5119 27 67.2479 27C65.9999 27 65.0519 26.718 64.4039 26.154C63.7559 25.59 63.4319 24.636 63.4319 23.292V20.628C63.2039 20.664 62.9579 20.682 62.6939 20.682C62.4299 20.682 62.2079 20.58 62.0279 20.376C61.8599 20.172 61.7759 19.824 61.7759 19.332C61.7759 18.84 61.8059 18.486 61.8659 18.27C61.9259 18.042 62.0099 17.88 62.1179 17.784C62.3099 17.628 62.5499 17.55 62.8379 17.55L63.4319 17.622V15.768C63.4319 15.492 63.4379 15.288 63.4499 15.156C63.4739 15.024 63.5339 14.88 63.6299 14.724C63.7859 14.424 64.2479 14.274 65.0159 14.274C65.8319 14.274 66.3179 14.496 66.4739 14.94C66.5339 15.132 66.5639 15.438 66.5639 15.858V17.622C67.0919 17.574 67.4879 17.55 67.7519 17.55C68.0279 17.55 68.2319 17.562 68.3639 17.586C68.5079 17.598 68.6699 17.652 68.8499 17.748C69.1619 17.904 69.3179 18.366 69.3179 19.134C69.3179 19.89 69.1559 20.352 68.8319 20.52C68.6519 20.604 68.4899 20.658 68.3459 20.682C68.2139 20.694 68.0099 20.7 67.7339 20.7Z" fill="white"/>
</svg>
