<svg width="100" height="40" viewBox="0 0 100 40" fill="none" xmlns="http://www.w3.org/2000/svg">
<rect width="100" height="40" rx="20" fill="#00B1CC"/>
<path d="M33.9568 24.336H38.8528C39.2488 24.336 39.5368 24.384 39.7168 24.48C39.8968 24.564 40.0168 24.702 40.0768 24.894C40.1368 25.086 40.1668 25.344 40.1668 25.668C40.1668 25.98 40.1368 26.232 40.0768 26.424C40.0168 26.616 39.9148 26.748 39.7708 26.82C39.5428 26.94 39.2308 27 38.8348 27H32.3548C31.5148 27 31.0228 26.772 30.8788 26.316C30.8068 26.124 30.7708 25.818 30.7708 25.398V15.39C30.7708 15.114 30.7768 14.91 30.7888 14.778C30.8128 14.634 30.8728 14.472 30.9688 14.292C31.1368 13.968 31.6048 13.806 32.3728 13.806C33.2128 13.806 33.7108 14.028 33.8668 14.472C33.9268 14.676 33.9568 14.988 33.9568 15.408V24.336ZM47.4912 18.522C47.5632 17.85 48.0372 17.514 48.9132 17.514C49.3812 17.514 49.7292 17.55 49.9572 17.622C50.1852 17.694 50.3412 17.82 50.4252 18C50.5212 18.18 50.5752 18.342 50.5872 18.486C50.6112 18.618 50.6232 18.822 50.6232 19.098V25.398C50.6232 25.674 50.6112 25.884 50.5872 26.028C50.5752 26.16 50.5272 26.316 50.4432 26.496C50.2752 26.808 49.8612 26.964 49.2012 26.964C48.5532 26.964 48.1152 26.886 47.8872 26.73C47.6712 26.562 47.5452 26.322 47.5092 26.01C47.0652 26.646 46.3212 26.964 45.2772 26.964C44.2452 26.964 43.2852 26.49 42.3972 25.542C41.5092 24.594 41.0652 23.496 41.0652 22.248C41.0652 20.988 41.5092 19.89 42.3972 18.954C43.2972 18.006 44.2812 17.532 45.3492 17.532C45.7572 17.532 46.1292 17.604 46.4652 17.748C46.8012 17.892 47.0352 18.03 47.1672 18.162C47.2992 18.282 47.4072 18.402 47.4912 18.522ZM44.2152 22.266C44.2152 22.662 44.3712 23.022 44.6832 23.346C44.9952 23.658 45.3732 23.814 45.8172 23.814C46.2612 23.814 46.6272 23.652 46.9152 23.328C47.2152 23.004 47.3652 22.65 47.3652 22.266C47.3652 21.87 47.2212 21.504 46.9332 21.168C46.6572 20.832 46.2792 20.664 45.7992 20.664C45.3312 20.664 44.9472 20.832 44.6472 21.168C44.3592 21.504 44.2152 21.87 44.2152 22.266ZM52.1299 26.154C51.9019 26.01 51.7879 25.782 51.7879 25.47C51.7879 25.158 52.0159 24.684 52.4719 24.048C52.6039 23.844 52.8139 23.742 53.1019 23.742C53.4019 23.742 53.8039 23.892 54.3079 24.192C54.8119 24.48 55.2679 24.624 55.6759 24.624C56.4079 24.624 56.7739 24.48 56.7739 24.192C56.7739 23.964 56.3719 23.796 55.5679 23.688C54.8119 23.58 54.0619 23.298 53.3179 22.842C52.9699 22.626 52.6819 22.29 52.4539 21.834C52.2259 21.366 52.1119 20.814 52.1119 20.178C52.1119 18.282 53.4139 17.334 56.0179 17.334C56.8699 17.334 57.7459 17.538 58.6459 17.946C59.0659 18.138 59.2759 18.378 59.2759 18.666C59.2759 18.954 59.1439 19.308 58.8799 19.728C58.6159 20.148 58.3459 20.358 58.0699 20.358C57.9259 20.358 57.6559 20.268 57.2599 20.088C56.8759 19.908 56.4559 19.818 55.9999 19.818C55.2919 19.818 54.9379 19.95 54.9379 20.214C54.9379 20.574 55.3459 20.808 56.1619 20.916C56.9539 21 57.7219 21.228 58.4659 21.6C58.8139 21.768 59.1019 22.062 59.3299 22.482C59.5699 22.89 59.6899 23.406 59.6899 24.03C59.6899 24.654 59.5699 25.188 59.3299 25.632C59.1019 26.064 58.7779 26.388 58.3579 26.604C57.5899 26.976 56.6239 27.162 55.4599 27.162C54.3079 27.162 53.1979 26.826 52.1299 26.154ZM66.0913 20.7L64.9213 20.628V23.112C64.9213 23.436 64.9693 23.67 65.0653 23.814C65.1733 23.958 65.3653 24.03 65.6413 24.03C65.9293 24.03 66.1453 24.042 66.2893 24.066C66.4453 24.078 66.6073 24.132 66.7753 24.228C67.0513 24.384 67.1893 24.786 67.1893 25.434C67.1893 26.19 67.0213 26.652 66.6853 26.82C66.5053 26.904 66.3433 26.958 66.1993 26.982C66.0673 26.994 65.8693 27 65.6053 27C64.3573 27 63.4093 26.718 62.7613 26.154C62.1133 25.59 61.7893 24.636 61.7893 23.292V20.628C61.5613 20.664 61.3153 20.682 61.0513 20.682C60.7873 20.682 60.5653 20.58 60.3853 20.376C60.2173 20.172 60.1333 19.824 60.1333 19.332C60.1333 18.84 60.1633 18.486 60.2233 18.27C60.2833 18.042 60.3673 17.88 60.4753 17.784C60.6673 17.628 60.9073 17.55 61.1953 17.55L61.7893 17.622V15.768C61.7893 15.492 61.7953 15.288 61.8073 15.156C61.8313 15.024 61.8913 14.88 61.9873 14.724C62.1433 14.424 62.6053 14.274 63.3733 14.274C64.1893 14.274 64.6753 14.496 64.8313 14.94C64.8913 15.132 64.9213 15.438 64.9213 15.858V17.622C65.4493 17.574 65.8453 17.55 66.1093 17.55C66.3853 17.55 66.5893 17.562 66.7213 17.586C66.8653 17.598 67.0273 17.652 67.2073 17.748C67.5193 17.904 67.6753 18.366 67.6753 19.134C67.6753 19.89 67.5133 20.352 67.1893 20.52C67.0093 20.604 66.8473 20.658 66.7033 20.682C66.5713 20.694 66.3673 20.7 66.0913 20.7Z" fill="white"/>
</svg>
