<svg width="60" height="60" viewBox="0 0 60 60" fill="none" xmlns="http://www.w3.org/2000/svg">
<rect width="60" height="60" rx="15" fill="#FFC8BE"/>
<path d="M39.9984 30.4983C39.9984 31.4266 39.8241 32.3168 39.514 32.9732C39.2038 33.6296 38.7831 33.9983 38.3445 33.9983H21.7055C21.484 34.0129 21.2635 33.9332 21.0569 33.764C20.8503 33.5948 20.6619 33.3394 20.5028 33.0131C20.3437 32.6868 20.2172 32.2962 20.1309 31.8645C20.0445 31.4328 20 30.9688 20 30.5C20 30.0312 20.0445 29.5672 20.1309 29.1355C20.2172 28.7038 20.3437 28.3132 20.5028 27.9869C20.6619 27.6606 20.8503 27.4052 21.0569 27.236C21.2635 27.0668 21.484 26.9871 21.7055 27.0017H38.3477C38.786 27.0026 39.2063 27.3717 39.5161 28.028C39.826 28.6843 40 29.574 40 30.5017L39.9984 30.4983Z" fill="#D18880"/>
</svg>
