<svg width="60" height="60" viewBox="0 0 60 60" fill="none" xmlns="http://www.w3.org/2000/svg">
<rect width="60" height="60" rx="15" fill="#FFC8BE"/>
<path d="M30 17.875C31.4358 17.8752 32.8355 18.3249 34.0028 19.161C35.17 19.9972 36.0462 21.1778 36.5083 22.5372C36.9704 23.8966 36.9954 25.3665 36.5796 26.7408C36.1638 28.1151 35.3282 29.3248 34.19 30.2C36.55 31.5125 38.125 33.9 38.125 36.625C38.125 40.7675 34.4875 44.125 30 44.125C25.5125 44.125 21.875 40.7675 21.875 36.625C21.875 33.8988 23.4513 31.5125 25.8088 30.1988C24.671 29.3233 23.8358 28.1136 23.4204 26.7395C23.0049 25.3653 23.0301 23.8955 23.4923 22.5364C23.9546 21.1772 24.8307 19.9969 25.9978 19.1609C27.1649 18.3249 28.5644 17.8753 30 17.875ZM30 31.625C26.85 31.625 24.375 33.91 24.375 36.625C24.375 39.34 26.85 41.625 30 41.625C33.15 41.625 35.625 39.34 35.625 36.625C35.625 33.91 33.15 31.625 30 31.625ZM30 20.375C28.8397 20.375 27.7269 20.8359 26.9064 21.6564C26.0859 22.4769 25.625 23.5897 25.625 24.75C25.625 25.9103 26.0859 27.0231 26.9064 27.8436C27.7269 28.6641 28.8397 29.125 30 29.125C31.1603 29.125 32.2731 28.6641 33.0936 27.8436C33.9141 27.0231 34.375 25.9103 34.375 24.75C34.375 23.5897 33.9141 22.4769 33.0936 21.6564C32.2731 20.8359 31.1603 20.375 30 20.375Z" fill="#D18880"/>
</svg>
