<svg width="60" height="60" viewBox="0 0 60 60" fill="none" xmlns="http://www.w3.org/2000/svg">
<rect width="60" height="60" rx="15" fill="#FFC8BE"/>
<path d="M37.5 17.5V19.2025L31.0112 26.9375C32.4791 27.1217 33.8689 27.7031 35.0307 28.619C36.1925 29.535 37.0822 30.7507 37.6038 32.1351C38.1255 33.5195 38.2594 35.02 37.991 36.4749C37.7225 37.9298 37.0621 39.2837 36.0807 40.3909C35.0994 41.498 33.8344 42.3162 32.4223 42.7572C31.0102 43.1983 29.5044 43.2455 28.0674 42.8937C26.6304 42.542 25.3167 41.8046 24.268 40.7611C23.2192 39.7177 22.4752 38.4077 22.1162 36.9725L24.5412 36.365C24.8769 37.6945 25.6864 38.8557 26.8178 39.6304C27.9491 40.4052 29.3244 40.7402 30.6853 40.5726C32.0462 40.405 33.2992 39.7463 34.2087 38.7202C35.1183 37.6941 35.6219 36.3712 35.625 35C35.6252 34.0419 35.3808 33.0996 34.9148 32.2625C34.4489 31.4254 33.7768 30.7212 32.9624 30.2166C32.1479 29.712 31.2181 29.4238 30.261 29.3794C29.304 29.3349 28.3514 29.5356 27.4937 29.9625L27.2087 30.115L26.3462 28.6063L33.5687 20H23.125V17.5H37.5Z" fill="#D18880"/>
</svg>
