<svg width="134" height="60" viewBox="0 0 134 60" fill="none" xmlns="http://www.w3.org/2000/svg">
<rect width="134" height="60" rx="15" fill="#FFC8BE"/>
<path d="M32 13.875C33.6512 13.875 35.105 14.31 36.3087 15.1175C37.5125 15.9237 38.4662 17.1025 39.12 18.59C39.7725 20.0775 40.125 21.8713 40.125 23.9113V30.0887C40.125 32.1287 39.7725 33.9237 39.12 35.41C38.4662 36.8975 37.5125 38.0763 36.3075 38.8825C35.105 39.69 33.6512 40.125 32 40.125C30.3488 40.125 28.895 39.69 27.6913 38.8825C26.4875 38.0763 25.5337 36.8975 24.88 35.41C24.2275 33.9225 23.875 32.1287 23.875 30.0887V23.9113C23.875 21.8713 24.2275 20.0762 24.88 18.59C25.5337 17.1025 26.4875 15.9237 27.6925 15.1175C28.8937 14.31 30.3475 13.875 32 13.875ZM32 16.375C30.855 16.375 29.8825 16.6575 29.0837 17.1938C28.2875 17.7275 27.6363 18.5312 27.1688 19.5938C26.6538 20.7687 26.375 22.2288 26.375 23.9113V30.0887C26.375 31.7712 26.6538 33.2312 27.1688 34.405C27.6363 35.4688 28.2875 36.2725 29.0837 36.8062C29.8825 37.3425 30.855 37.625 32 37.625C33.145 37.625 34.1175 37.3425 34.9163 36.8062C35.7125 36.2725 36.3637 35.4688 36.8312 34.4062C37.3462 33.2312 37.625 31.7712 37.625 30.0887V23.9113C37.625 22.2288 37.3462 20.7688 36.8312 19.595C36.3637 18.5313 35.7125 17.7275 34.9163 17.1938C34.1175 16.6575 33.145 16.375 32 16.375Z" fill="#D18880"/>
</svg>
