<svg width="60" height="60" viewBox="0 0 60 60" fill="none" xmlns="http://www.w3.org/2000/svg">
<rect width="60" height="60" rx="15" fill="#FFC8BE"/>
<path d="M30 16.875C31.4288 16.8747 32.8325 17.2512 34.0694 17.9665C35.3063 18.6818 36.3326 19.7106 37.045 20.9492C37.7573 22.1878 38.1305 23.5924 38.1267 25.0212C38.123 26.4501 37.7425 27.8526 37.0237 29.0875L29.2787 42.4988H26.3925L31.9412 32.8913C30.8253 33.1649 29.664 33.1987 28.5341 32.9905C27.4041 32.7823 26.3312 32.3368 25.3861 31.6834C24.4409 31.0301 23.6451 30.1837 23.0512 29.2001C22.4572 28.2166 22.0786 27.1183 21.9404 25.9776C21.8021 24.837 21.9074 23.68 22.2492 22.5831C22.5909 21.4861 23.1615 20.4741 23.9232 19.6139C24.6848 18.7536 25.6203 18.0647 26.6678 17.5926C27.7153 17.1205 28.851 16.8759 30 16.875ZM30 19.375C28.5081 19.375 27.0774 19.9676 26.0225 21.0225C24.9676 22.0774 24.375 23.5082 24.375 25C24.375 26.4918 24.9676 27.9226 26.0225 28.9775C27.0774 30.0324 28.5081 30.625 30 30.625C31.4918 30.625 32.9226 30.0324 33.9775 28.9775C35.0323 27.9226 35.625 26.4918 35.625 25C35.625 23.5082 35.0323 22.0774 33.9775 21.0225C32.9226 19.9676 31.4918 19.375 30 19.375Z" fill="#D18880"/>
</svg>
