<svg width="60" height="60" viewBox="0 0 60 60" fill="none" xmlns="http://www.w3.org/2000/svg">
<rect width="60" height="60" rx="15" fill="#FFC8BE"/>
<path d="M39.5814 18.4186C39.8492 18.6865 39.9997 19.0498 39.9997 19.4286C39.9997 19.8074 39.8492 20.1707 39.5814 20.4386L22.4386 37.5814C22.1691 37.8417 21.8083 37.9856 21.4337 37.9824C21.0591 37.9791 20.7008 37.8289 20.436 37.564C20.1711 37.2992 20.0209 36.9409 20.0176 36.5663C20.0144 36.1917 20.1583 35.8309 20.4186 35.5614L37.5614 18.4186C37.8293 18.1508 38.1926 18.0003 38.5714 18.0003C38.9502 18.0003 39.3135 18.1508 39.5814 18.4186ZM37.1429 38C37.9006 38 38.6273 37.699 39.1632 37.1632C39.699 36.6273 40 35.9006 40 35.1429C40 34.3851 39.699 33.6584 39.1632 33.1226C38.6273 32.5867 37.9006 32.2857 37.1429 32.2857C36.3851 32.2857 35.6584 32.5867 35.1226 33.1226C34.5867 33.6584 34.2857 34.3851 34.2857 35.1429C34.2857 35.9006 34.5867 36.6273 35.1226 37.1632C35.6584 37.699 36.3851 38 37.1429 38ZM22.8571 23.7143C23.6149 23.7143 24.3416 23.4133 24.8774 22.8774C25.4133 22.3416 25.7143 21.6149 25.7143 20.8571C25.7143 20.0994 25.4133 19.3727 24.8774 18.8368C24.3416 18.301 23.6149 18 22.8571 18C22.0994 18 21.3727 18.301 20.8368 18.8368C20.301 19.3727 20 20.0994 20 20.8571C20 21.6149 20.301 22.3416 20.8368 22.8774C21.3727 23.4133 22.0994 23.7143 22.8571 23.7143Z" fill="#D18880"/>
</svg>
