<svg width="30" height="30" viewBox="0 0 30 30" fill="none" xmlns="http://www.w3.org/2000/svg">
<path fill-rule="evenodd" clip-rule="evenodd" d="M9.3999 0.167709C10.9266 -0.517012 12.2493 1.02974 11.7717 2.37271C10.1511 6.92962 11.1468 12.1053 14.5107 15.4707C17.8917 18.8533 23.0972 19.8475 27.6651 18.1964C28.9943 17.716 30.4978 19.0268 29.8407 20.5184C29.8212 20.5625 29.8016 20.6064 29.7819 20.6505C28.6123 23.2461 26.7415 25.6871 24.3211 27.3236C21.7413 29.068 18.6989 30 15.5852 30H15.5837C11.9629 29.9961 8.4562 28.7321 5.66467 26.4249C2.87314 24.1177 0.970647 20.9106 0.283495 17.3536C-0.403657 13.7966 0.167355 10.1114 1.8986 6.92946C3.53982 3.91302 6.29962 1.56892 9.35501 0.18791L9.3999 0.167709Z" fill="#D18880"/>
</svg>
