<svg width="60" height="60" viewBox="0 0 60 60" fill="none" xmlns="http://www.w3.org/2000/svg">
<rect width="60" height="60" rx="15" fill="#FFC8BE"/>
<path d="M33.6075 15.5L28.06 25.1075C29.8812 24.6593 31.8014 24.8549 33.4948 25.6613C35.1882 26.4676 36.5505 27.835 37.3505 29.5314C38.1505 31.2278 38.339 33.1488 37.884 34.9683C37.4289 36.7878 36.3584 38.3939 34.854 39.514C33.3496 40.6341 31.5041 41.1993 29.6305 41.1136C27.7568 41.0279 25.9706 40.2966 24.5747 39.0438C23.1789 37.7911 22.2595 36.094 21.9724 34.2405C21.6854 32.387 22.0485 30.4913 23 28.875L30.72 15.5H33.6075ZM30 27.375C28.5082 27.375 27.0774 27.9676 26.0225 29.0225C24.9676 30.0774 24.375 31.5082 24.375 33C24.375 34.4918 24.9676 35.9226 26.0225 36.9775C27.0774 38.0324 28.5082 38.625 30 38.625C31.4918 38.625 32.9226 38.0324 33.9775 36.9775C35.0324 35.9226 35.625 34.4918 35.625 33C35.625 31.5082 35.0324 30.0774 33.9775 29.0225C32.9226 27.9676 31.4918 27.375 30 27.375Z" fill="#D18880"/>
</svg>
