<svg width="60" height="60" viewBox="0 0 60 60" fill="none" xmlns="http://www.w3.org/2000/svg">
<rect width="60" height="60" rx="15" fill="#FFC8BE"/>
<path d="M39.5186 36.8728C39.8364 37.2148 40.0088 37.6659 39.9997 38.1316C39.9906 38.5972 39.8007 39.0413 39.4698 39.3708C39.139 39.7002 38.6928 39.8895 38.2248 39.8988C37.7569 39.9082 37.3034 39.737 36.9595 39.4211L30.0507 32.5465L23.1419 39.4211C22.9763 39.5993 22.7762 39.7424 22.5537 39.8418C22.3312 39.9413 22.0907 39.9949 21.8468 39.9997C21.6029 40.0044 21.3606 39.96 21.1344 39.8693C20.9081 39.7785 20.7026 39.6433 20.5302 39.4716C20.3577 39.2999 20.2219 39.0953 20.1309 38.8701C20.0399 38.6449 19.9955 38.4037 20.0004 38.1611C20.0053 37.9184 20.0594 37.6792 20.1595 37.4578C20.2595 37.2365 20.4035 37.0375 20.5827 36.8728L27.4915 29.9982L20.5827 23.1272C20.4035 22.9625 20.2595 22.7635 20.1595 22.5422C20.0594 22.3208 20.0053 22.0816 20.0004 21.8389C19.9955 21.5962 20.0399 21.3551 20.1309 21.1299C20.2219 20.9047 20.3577 20.7001 20.5302 20.5284C20.7026 20.3567 20.9081 20.2215 21.1344 20.1307C21.3606 20.04 21.6029 19.9956 21.8468 20.0003C22.0907 20.0051 22.3312 20.0587 22.5537 20.1582C22.7762 20.2576 22.9763 20.4007 23.1419 20.5789L30.0507 27.4518L36.9595 20.5772C37.3034 20.2613 37.7569 20.09 38.2248 20.0994C38.6928 20.1088 39.139 20.298 39.4698 20.6275C39.8007 20.9569 39.9906 21.401 39.9997 21.8667C40.0088 22.3323 39.8364 22.7834 39.5186 23.1254L32.6098 29.9982L39.5186 36.8728Z" fill="#D18880"/>
</svg>
