<svg width="60" height="60" viewBox="0 0 60 60" fill="none" xmlns="http://www.w3.org/2000/svg">
<rect width="60" height="60" rx="15" fill="#FFC8BE"/>
<path d="M35 22.375C35 21.0489 34.4732 19.7771 33.5355 18.8395C32.5979 17.9018 31.3261 17.375 30 17.375C28.6739 17.375 27.4021 17.9018 26.4645 18.8395C25.5268 19.7771 25 21.0489 25 22.375H22.5C22.5 21.1748 22.7881 19.9922 23.34 18.9265C23.8919 17.8607 24.6914 16.943 25.6715 16.2504C26.6516 15.5577 27.7837 15.1104 28.9725 14.946C30.1613 14.7816 31.3723 14.9049 32.5036 15.3055C33.6349 15.7061 34.6535 16.3724 35.4739 17.2483C36.2944 18.1242 36.8926 19.1843 37.2184 20.3394C37.5442 21.4945 37.588 22.7109 37.3462 23.8864C37.1044 25.0619 36.584 26.1623 35.8288 27.095L26.6788 37.9987L37.5 38V40.5H22.5V39.0912L33.83 25.5887C34.5873 24.6893 35.0018 23.5508 35 22.375Z" fill="#D18880"/>
</svg>
