<svg width="30" height="30" viewBox="0 0 30 30" fill="none" xmlns="http://www.w3.org/2000/svg">
<path fill-rule="evenodd" clip-rule="evenodd" d="M16.3636 24.5455V30H13.6364V24.5455H16.3636ZM22.7139 20.7854L26.5708 24.6424L24.6424 26.5708L20.7854 22.7139L22.7139 20.7854ZM7.28611 20.7854L9.21458 22.7139L5.35763 26.5708L3.42916 24.6424L7.28611 20.7854ZM15 7.54387C19.1179 7.54387 22.4561 10.8821 22.4561 15C22.4561 19.1179 19.1179 22.4562 15 22.4562C13.0214 22.4599 11.1227 21.6756 9.72354 20.2765C8.32442 18.8773 7.54009 16.9786 7.54385 15C7.54385 10.8821 10.8821 7.54387 15 7.54387ZM30 13.6364V16.3636H24.5455V13.6364H30ZM5.45455 13.6364V16.3636H0V13.6364H5.45455ZM5.35763 3.42916L9.21458 7.28611L7.28611 9.21458L3.42916 5.35763L5.35763 3.42916ZM24.6424 3.42916L26.5708 5.35763L22.7139 9.21458L20.7854 7.28611L24.6424 3.42916ZM16.3636 0V5.45455H13.6364V0L16.3636 0Z" fill="#FFB6C1"/>
</svg>
