<svg width="60" height="60" viewBox="0 0 60 60" fill="none" xmlns="http://www.w3.org/2000/svg">
<rect width="60" height="60" rx="15" fill="#FFC8BE"/>
<path d="M40.6222 23.3324H36.6335C36.4801 22.4801 36.1946 21.7301 35.777 21.0824C35.3594 20.4347 34.848 19.8849 34.2429 19.4332C33.6378 18.9815 32.9602 18.6406 32.2102 18.4105C31.4688 18.1804 30.6804 18.0653 29.8452 18.0653C28.3366 18.0653 26.9858 18.4446 25.7926 19.2031C24.608 19.9616 23.6705 21.0739 22.9801 22.5398C22.2983 24.0057 21.9574 25.7955 21.9574 27.9091C21.9574 30.0398 22.2983 31.8381 22.9801 33.304C23.6705 34.7699 24.6122 35.8778 25.8054 36.6278C26.9986 37.3778 28.3409 37.7528 29.8324 37.7528C30.6591 37.7528 31.4432 37.642 32.1847 37.4205C32.9347 37.1903 33.6122 36.8537 34.2173 36.4105C34.8224 35.9673 35.3338 35.4261 35.7514 34.7869C36.1776 34.1392 36.4716 33.3977 36.6335 32.5625L40.6222 32.5753C40.4091 33.8622 39.9957 35.0469 39.3821 36.1293C38.777 37.2031 37.9972 38.1321 37.0426 38.9162C36.0966 39.6918 35.0142 40.2926 33.7955 40.7188C32.5767 41.1449 31.2472 41.358 29.8068 41.358C27.5398 41.358 25.5199 40.821 23.7472 39.7472C21.9744 38.6648 20.5767 37.1179 19.554 35.1065C18.5398 33.0952 18.0327 30.696 18.0327 27.9091C18.0327 25.1136 18.544 22.7145 19.5668 20.7116C20.5895 18.7003 21.9872 17.1577 23.7599 16.0838C25.5327 15.0014 27.5483 14.4602 29.8068 14.4602C31.196 14.4602 32.4915 14.6605 33.6932 15.0611C34.9034 15.4531 35.9901 16.0327 36.9531 16.7997C37.9162 17.5582 38.7131 18.4872 39.3438 19.5866C39.9744 20.6776 40.4006 21.9261 40.6222 23.3324Z" fill="#D18880"/>
</svg>
