<svg width="60" height="60" viewBox="0 0 60 60" fill="none" xmlns="http://www.w3.org/2000/svg">
<rect width="60" height="60" rx="15" fill="#FFC8BE"/>
<path d="M37.5 17.5V20H26.625L25.7787 28.0562C27.2411 27.1676 28.9467 26.7634 30.6523 26.9012C32.3579 27.0389 33.9765 27.7117 35.2773 28.8236C36.5781 29.9354 37.4946 31.4296 37.8962 33.093C38.2978 34.7564 38.1639 36.5041 37.5137 38.087C36.8635 39.6698 35.7302 41.007 34.2753 41.9078C32.8204 42.8086 31.1183 43.2271 29.4115 43.1036C27.7048 42.98 26.0807 42.3208 24.7707 41.2199C23.4607 40.1189 22.5317 38.6325 22.1162 36.9725L24.5412 36.365C24.8769 37.6945 25.6864 38.8557 26.8178 39.6304C27.9491 40.4052 29.3244 40.7402 30.6853 40.5726C32.0462 40.405 33.2992 39.7463 34.2087 38.7202C35.1183 37.6941 35.6219 36.3712 35.625 35C35.625 33.5082 35.0323 32.0774 33.9774 31.0225C32.9225 29.9676 31.4918 29.375 30 29.375C27.4725 29.375 25.9025 30.1737 25.05 31.2875L23.0812 29.81L24.375 17.5H37.5Z" fill="#D18880"/>
</svg>
