<svg width="60" height="60" viewBox="0 0 60 60" fill="none" xmlns="http://www.w3.org/2000/svg">
<rect width="60" height="60" rx="15" fill="#FFC8BE"/>
<path d="M15.0773 23.2456C15.0773 22.3848 15.3387 21.5593 15.8039 20.9506C16.2692 20.3419 16.9002 20 17.5582 20H42.5191C43.1634 20.0263 43.7745 20.3796 44.2232 20.9851C44.6718 21.5906 44.9227 22.4007 44.9227 23.244C44.9227 24.0872 44.6718 24.8974 44.2232 25.5029C43.7745 26.1084 43.1634 26.4617 42.5191 26.488H17.5558C16.8987 26.4863 16.2689 26.1436 15.8046 25.5351C15.3404 24.9267 15.0797 24.1021 15.0797 23.2424L15.0773 23.2456ZM44.9976 37.7529C44.9976 38.6136 44.7362 39.4392 44.271 40.0478C43.8057 40.6565 43.1747 40.9984 42.5167 40.9984H17.5582C17.2261 41.012 16.8952 40.9381 16.5853 40.7811C16.2754 40.6242 15.9928 40.3874 15.7542 40.0849C15.5156 39.7823 15.3259 39.4201 15.1963 39.0198C15.0668 38.6195 15 38.1892 15 37.7544C15 37.3197 15.0668 36.8894 15.1963 36.4891C15.3259 36.0888 15.5156 35.7266 15.7542 35.424C15.9928 35.1214 16.2754 34.8847 16.5853 34.7277C16.8952 34.5708 17.2261 34.4969 17.5582 34.5105H42.5215C43.1791 34.5113 43.8095 34.8536 44.2742 35.4622C44.739 36.0707 45 36.8958 45 37.756L44.9976 37.7529Z" fill="#D18880"/>
</svg>
