<svg width="60" height="60" viewBox="0 0 60 60" fill="none" xmlns="http://www.w3.org/2000/svg">
<rect width="60" height="60" rx="15" fill="#FFC8BE"/>
<path d="M39.9984 29.9992C39.9984 30.4495 39.8241 30.8813 39.514 31.1997C39.2038 31.5181 38.7831 31.697 38.3445 31.697H21.7055C21.484 31.7041 21.2635 31.6655 21.0569 31.5834C20.8503 31.5013 20.6619 31.3774 20.5028 31.2191C20.3437 31.0608 20.2172 30.8714 20.1309 30.6619C20.0445 30.4525 20 30.2274 20 30C20 29.7726 20.0445 29.5475 20.1309 29.3381C20.2172 29.1286 20.3437 28.9392 20.5028 28.7809C20.6619 28.6226 20.8503 28.4987 21.0569 28.4166C21.2635 28.3345 21.484 28.2959 21.7055 28.303H38.3477C38.786 28.3034 39.2063 28.4825 39.5161 28.8008C39.826 29.1192 40 29.5508 40 30.0008L39.9984 29.9992ZM27.6645 22.4231C27.6645 21.9439 27.8029 21.4754 28.0623 21.0769C28.3217 20.6784 28.6903 20.3679 29.1216 20.1845C29.553 20.0011 30.0276 19.9531 30.4855 20.0466C30.9434 20.1401 31.364 20.3708 31.6941 20.7097C32.0242 21.0486 32.249 21.4804 32.3401 21.9504C32.4312 22.4205 32.3844 22.9077 32.2058 23.3504C32.0271 23.7932 31.7246 24.1717 31.3364 24.4379C30.9482 24.7042 30.4918 24.8463 30.025 24.8463C29.3989 24.8463 28.7985 24.591 28.3559 24.1366C27.9132 23.6821 27.6645 23.0658 27.6645 22.4231ZM32.3854 37.5769C32.3854 38.0561 32.247 38.5246 31.9876 38.9231C31.7283 39.3216 31.3596 39.6321 30.9283 39.8155C30.497 39.999 30.0223 40.0469 29.5645 39.9534C29.1066 39.8599 28.686 39.6292 28.3559 39.2903C28.0257 38.9514 27.8009 38.5196 27.7098 38.0496C27.6188 37.5795 27.6655 37.0923 27.8442 36.6496C28.0228 36.2068 28.3254 35.8283 28.7135 35.5621C29.1017 35.2958 29.5581 35.1537 30.025 35.1537C30.651 35.1537 31.2514 35.409 31.6941 35.8634C32.1367 36.3179 32.3854 36.9342 32.3854 37.5769Z" fill="#D18880"/>
</svg>
