<svg width="380" height="400" viewBox="0 0 380 400" fill="none" xmlns="http://www.w3.org/2000/svg">
<rect width="380" height="400" fill="white"/>
<rect x="10" y="10" width="360" height="380" fill="#FBBD42"/>
<g clip-path="url(#clip0_16_60)">
<g filter="url(#filter0_f_16_60)">
<path d="M178.401 113.737H139.599C100.861 113.737 69.4569 144.747 69.4569 183V211C69.4569 249.253 100.861 280.263 139.599 280.263H178.401C217.139 280.263 248.543 249.253 248.543 211V183C248.543 144.747 217.139 113.737 178.401 113.737Z" fill="#FFEF9A"/>
</g>
<g filter="url(#filter1_i_16_60)">
<path d="M236.604 210.263C236.604 252.586 201.86 286.895 159 286.895C116.14 286.895 81.396 252.586 81.396 210.263C81.396 167.94 116.14 133.632 159 133.632C201.86 133.632 236.604 167.94 236.604 210.263Z" fill="url(#paint0_linear_16_60)"/>
</g>
<g filter="url(#filter2_i_16_60)">
<path d="M203.269 249.779C203.808 246.755 204.089 243.644 204.089 240.469C204.089 210.764 179.476 186.684 149.114 186.684C126.543 186.684 107.149 199.992 98.6823 219.026C91.8233 213.233 82.9233 209.735 73.1971 209.735C51.5102 209.735 33.9294 227.126 33.9294 248.579C33.9294 249.773 33.984 250.955 34.0907 252.122C23.6597 257.121 16.4772 267.61 16.4772 279.74C16.4772 296.714 30.5417 310.474 47.8913 310.474H196.236C213.586 310.474 227.65 296.714 227.65 279.74C227.65 265.131 217.232 252.903 203.269 249.779Z" fill="url(#paint1_linear_16_60)"/>
</g>
</g>
<defs>
<filter id="filter0_f_16_60" x="-7.54309" y="36.7368" width="333.086" height="320.526" filterUnits="userSpaceOnUse" color-interpolation-filters="sRGB">
<feFlood flood-opacity="0" result="BackgroundImageFix"/>
<feBlend mode="normal" in="SourceGraphic" in2="BackgroundImageFix" result="shape"/>
<feGaussianBlur stdDeviation="38.5" result="effect1_foregroundBlur_16_60"/>
</filter>
<filter id="filter1_i_16_60" x="81.396" y="133.632" width="155.208" height="158.263" filterUnits="userSpaceOnUse" color-interpolation-filters="sRGB">
<feFlood flood-opacity="0" result="BackgroundImageFix"/>
<feBlend mode="normal" in="SourceGraphic" in2="BackgroundImageFix" result="shape"/>
<feColorMatrix in="SourceAlpha" type="matrix" values="0 0 0 0 0 0 0 0 0 0 0 0 0 0 0 0 0 0 127 0" result="hardAlpha"/>
<feOffset dy="5"/>
<feGaussianBlur stdDeviation="9"/>
<feComposite in2="hardAlpha" operator="arithmetic" k2="-1" k3="1"/>
<feColorMatrix type="matrix" values="0 0 0 0 1 0 0 0 0 1 0 0 0 0 1 0 0 0 0.81 0"/>
<feBlend mode="normal" in2="shape" result="effect1_innerShadow_16_60"/>
</filter>
<filter id="filter2_i_16_60" x="16.4772" y="186.684" width="211.173" height="133.789" filterUnits="userSpaceOnUse" color-interpolation-filters="sRGB">
<feFlood flood-opacity="0" result="BackgroundImageFix"/>
<feBlend mode="normal" in="SourceGraphic" in2="BackgroundImageFix" result="shape"/>
<feColorMatrix in="SourceAlpha" type="matrix" values="0 0 0 0 0 0 0 0 0 0 0 0 0 0 0 0 0 0 127 0" result="hardAlpha"/>
<feOffset dy="11"/>
<feGaussianBlur stdDeviation="5"/>
<feComposite in2="hardAlpha" operator="arithmetic" k2="-1" k3="1"/>
<feColorMatrix type="matrix" values="0 0 0 0 1 0 0 0 0 1 0 0 0 0 1 0 0 0 1 0"/>
<feBlend mode="normal" in2="shape" result="effect1_innerShadow_16_60"/>
</filter>
<linearGradient id="paint0_linear_16_60" x1="147.212" y1="251.974" x2="209.856" y2="140.712" gradientUnits="userSpaceOnUse">
<stop stop-color="#FF9900"/>
<stop offset="1" stop-color="#FFEE94"/>
</linearGradient>
<linearGradient id="paint1_linear_16_60" x1="29.9086" y1="299.421" x2="241.013" y2="139.552" gradientUnits="userSpaceOnUse">
<stop stop-color="white"/>
<stop offset="1" stop-color="white" stop-opacity="0.58"/>
</linearGradient>
<clipPath id="clip0_16_60">
<rect width="294" height="280" fill="white" transform="translate(12 57)"/>
</clipPath>
</defs>
</svg>
