<svg width="34" height="34" viewBox="0 0 34 34" fill="none" xmlns="http://www.w3.org/2000/svg">
<path d="M32.8812 23.549C32.6145 23.099 31.8645 22.399 29.9979 22.7323C28.9645 22.9157 27.9145 22.999 26.8645 22.949C22.9812 22.7823 19.4645 20.999 17.0145 18.249C14.8479 15.8323 13.5146 12.6823 13.4979 9.2823C13.4979 7.3823 13.8645 5.54897 14.6145 3.81563C15.3479 2.1323 14.8312 1.24897 14.4645 0.882302C14.0812 0.498969 13.1813 -0.034365 11.4146 0.698968C4.59793 3.56563 0.38126 10.399 0.88126 17.7157C1.38126 24.599 6.21459 30.4823 12.6146 32.699C14.1479 33.2323 15.7645 33.549 17.4312 33.6157C17.6979 33.6323 17.9645 33.649 18.2312 33.649C23.8145 33.649 29.0479 31.0157 32.3479 26.5323C33.4645 24.9823 33.1645 23.999 32.8812 23.549Z" fill="#333333"/>
</svg>
