<svg width="40" height="40" viewBox="0 0 40 40" fill="none" xmlns="http://www.w3.org/2000/svg">
<path d="M19.5833 9.16667C18.6628 9.16667 17.9166 8.42047 17.9166 7.5V3.33333C17.9166 2.41287 18.6628 1.66667 19.5833 1.66667H20.4166C21.3371 1.66667 22.0833 2.41287 22.0833 3.33333V7.5C22.0833 8.42047 21.3371 9.16667 20.4166 9.16667H19.5833Z" fill="#F4F4F5"/>
<path d="M27.3657 12.045C26.7149 11.3941 26.7149 10.3388 27.3657 9.68795L30.312 6.74167C30.9629 6.09078 32.0182 6.09078 32.669 6.74167L33.2582 7.33092C33.9092 7.9818 33.9092 9.03707 33.2582 9.68795L30.312 12.6342C29.6612 13.2851 28.6059 13.2851 27.955 12.6342L27.3657 12.045Z" fill="#F4F4F5"/>
<path d="M30.8334 19.5833C30.8334 18.6628 31.5795 17.9167 32.5 17.9167H36.6667C37.5872 17.9167 38.3334 18.6628 38.3334 19.5833V20.4167C38.3334 21.3372 37.5872 22.0833 36.6667 22.0833H32.5C31.5795 22.0833 30.8334 21.3372 30.8334 20.4167V19.5833Z" fill="#F4F4F5"/>
<path d="M27.9547 27.3657C28.6055 26.7148 29.6608 26.7148 30.3117 27.3657L33.258 30.312C33.9088 30.9628 33.9088 32.0182 33.258 32.669L32.6687 33.2582C32.0178 33.9092 30.9625 33.9092 30.3117 33.2582L27.3653 30.312C26.7145 29.6612 26.7145 28.6058 27.3653 27.955L27.9547 27.3657Z" fill="#F4F4F5"/>
<path d="M20.4166 30.8333C21.3371 30.8333 22.0833 31.5795 22.0833 32.5V36.6667C22.0833 37.5872 21.3371 38.3333 20.4166 38.3333H19.5833C18.6628 38.3333 17.9166 37.5872 17.9166 36.6667V32.5C17.9166 31.5795 18.6628 30.8333 19.5833 30.8333H20.4166Z" fill="#F4F4F5"/>
<path d="M12.6343 27.955C13.2851 28.6058 13.2851 29.6612 12.6343 30.312L9.68797 33.2583C9.03711 33.9092 7.98182 33.9092 7.33096 33.2583L6.74169 32.669C6.09082 32.0182 6.09082 30.963 6.74169 30.312L9.68797 27.3658C10.3388 26.7148 11.3941 26.7148 12.045 27.3658L12.6343 27.955Z" fill="#F4F4F5"/>
<path d="M9.16663 20.4167C9.16663 21.3372 8.42043 22.0833 7.49996 22.0833H3.33329C2.41283 22.0833 1.66663 21.3372 1.66663 20.4167V19.5833C1.66663 18.6628 2.41283 17.9167 3.33329 17.9167H7.49996C8.42043 17.9167 9.16663 18.6628 9.16663 19.5833V20.4167Z" fill="#F4F4F5"/>
<path d="M12.0454 12.6343C11.3945 13.2852 10.3392 13.2852 9.68834 12.6343L6.74206 9.68803C6.09119 9.03717 6.09119 7.98188 6.74206 7.33102L7.33132 6.74175C7.98219 6.09088 9.03746 6.09088 9.68834 6.74175L12.6346 9.68803C13.2855 10.3389 13.2855 11.3942 12.6346 12.045L12.0454 12.6343Z" fill="#F4F4F5"/>
<path d="M11.6666 20C11.6666 15.3976 15.3976 11.6667 20 11.6667C24.6023 11.6667 28.3333 15.3976 28.3333 20C28.3333 24.6023 24.6023 28.3333 20 28.3333C15.3976 28.3333 11.6666 24.6023 11.6666 20Z" fill="#F4F4F5"/>
</svg>
