<svg width="30" height="31" viewBox="0 0 30 31" fill="none" xmlns="http://www.w3.org/2000/svg">
<path d="M19.8048 19.0196C20.9526 21.0224 21.5265 22.0238 21.1193 22.7593C20.7122 23.4948 19.5935 23.4771 17.3562 23.4419L16.7775 23.4329C16.1417 23.4229 15.8239 23.4179 15.5445 23.5404C15.2652 23.6628 15.056 23.8988 14.6376 24.3708L14.2567 24.8004C12.7844 26.4613 12.0482 27.2917 11.2215 27.0971C10.3949 26.9024 10.0251 25.8115 9.28575 23.6299L9.09437 23.0654C8.88425 22.4454 8.77925 22.1354 8.56862 21.8976C8.35787 21.6598 8.0655 21.5211 7.48087 21.2436L6.9485 20.9911C4.89075 20.0147 3.86187 19.5266 3.75812 18.6709C3.65437 17.8152 4.5445 17.1585 6.32475 15.8452L6.78537 15.5055C7.29125 15.1324 7.54412 14.9457 7.69337 14.6763C7.8425 14.407 7.871 14.0852 7.928 13.4417L7.97987 12.856C8.18037 10.5917 8.28075 9.45959 9.04325 9.12538C9.80587 8.79117 10.7257 9.47622 12.5654 10.8463L13.0414 11.2008C13.5641 11.5901 13.8255 11.7848 14.1284 11.8561C14.4311 11.9274 14.7411 11.8673 15.3611 11.7471L15.9255 11.6376C18.1072 11.2145 19.1981 11.0029 19.7731 11.6521C20.3481 12.3013 20.0265 13.3814 19.3833 15.5413L19.2168 16.1002C19.034 16.714 18.9427 17.0209 18.9807 17.3344C19.0186 17.6479 19.1817 17.9325 19.5079 18.5016L19.8048 19.0196Z" fill="white"/>
<path opacity="0.5" fill-rule="evenodd" clip-rule="evenodd" d="M27.5379 11.5858C27.904 11.9641 27.904 12.5775 27.5379 12.9558L25.0379 15.5391C24.6718 15.9175 24.0782 15.9175 23.7121 15.5391C23.346 15.1608 23.346 14.5475 23.7121 14.1692L26.2121 11.5858C26.5782 11.2075 27.1718 11.2075 27.5379 11.5858ZM25.6629 4.48166C26.029 4.85998 26.029 5.47337 25.6629 5.85168L22.5379 9.08085C22.1718 9.45917 21.5782 9.45917 21.2121 9.08085C20.846 8.70253 20.846 8.08915 21.2121 7.71083L24.3371 4.48166C24.7032 4.10335 25.2968 4.10335 25.6629 4.48166ZM23.1629 16.1067C23.529 16.485 23.529 17.0983 23.1629 17.4766L22.5379 18.1225C22.1718 18.5008 21.5782 18.5008 21.2121 18.1225C20.846 17.7441 20.846 17.1309 21.2121 16.7525L21.8371 16.1067C22.2032 15.7284 22.7968 15.7284 23.1629 16.1067ZM20.6629 1.89833C21.029 2.27665 21.029 2.89003 20.6629 3.26835L20.0379 3.91418C19.6718 4.2925 19.0782 4.2925 18.7121 3.91418C18.346 3.53587 18.346 2.92248 18.7121 2.54416L19.3371 1.89833C19.7032 1.52001 20.2968 1.52001 20.6629 1.89833ZM17.5379 5.1275C17.904 5.50581 17.904 6.1192 17.5379 6.49752L15.6629 8.43502C15.2968 8.81333 14.7033 8.81333 14.3371 8.43502C13.971 8.0567 13.971 7.44331 14.3371 7.065L16.2121 5.1275C16.5783 4.74918 17.1718 4.74918 17.5379 5.1275Z" fill="white"/>
</svg>
