<svg width="20" height="20" viewBox="0 0 20 20" fill="none" xmlns="http://www.w3.org/2000/svg">
<path d="M0.501793 9.20754L17.7061 0.200164C17.9191 0.0886459 18.1724 0.0207361 18.4376 0.00404448C18.7027 -0.0126472 18.9693 0.0225387 19.2075 0.10566C19.4456 0.188781 19.6459 0.316553 19.7859 0.474658C19.9259 0.632763 20 0.814956 20 1.00082V19.0156C19.9992 19.2004 19.9251 19.3814 19.7859 19.5387C19.6467 19.6959 19.4479 19.8231 19.2115 19.9063C18.9823 19.9809 18.729 20.0118 18.4773 19.996C18.2255 19.9802 17.9842 19.9181 17.7778 19.8162L0.573479 10.8088C0.39542 10.7156 0.250899 10.5947 0.151361 10.4558C0.0518235 10.3168 0 10.1636 0 10.0082C0 9.85282 0.0518235 9.69958 0.151361 9.56061C0.250899 9.42164 0.39542 9.30076 0.573479 9.20754H0.501793Z" fill="white"/>
</svg>
