<svg width="30" height="30" viewBox="0 0 30 30" fill="none" xmlns="http://www.w3.org/2000/svg">
<path d="M19.8048 18.4061C20.9526 20.3442 21.5265 21.3134 21.1193 22.0251C20.7122 22.7369 19.5935 22.7197 17.3562 22.6857L16.7775 22.677C16.1417 22.6674 15.8239 22.6625 15.5445 22.781C15.2652 22.8995 15.056 23.1279 14.6376 23.5846L14.2567 24.0004C12.7844 25.6077 12.0482 26.4114 11.2215 26.223C10.3949 26.0346 10.0251 24.9789 9.28575 22.8676L9.09437 22.3214C8.88425 21.7214 8.77925 21.4214 8.56862 21.1912C8.35787 20.9611 8.0655 20.8269 7.48087 20.5584L6.9485 20.314C4.89075 19.3691 3.86187 18.8967 3.75812 18.0686C3.65437 17.2405 4.5445 16.605 6.32475 15.3341L6.78537 15.0054C7.29125 14.6442 7.54412 14.4636 7.69337 14.2029C7.8425 13.9422 7.871 13.6309 7.928 13.0081L7.97987 12.4413C8.18037 10.2501 8.28075 9.15445 9.04325 8.83102C9.80587 8.5076 10.7257 9.17055 12.5654 10.4964L13.0414 10.8395C13.5641 11.2162 13.8255 11.4046 14.1284 11.4737C14.4311 11.5427 14.7411 11.4845 15.3611 11.3681L15.9255 11.2622C18.1072 10.8527 19.1981 10.648 19.7731 11.2763C20.3481 11.9045 20.0265 12.9497 19.3833 15.04L19.2168 15.5809C19.034 16.1749 18.9427 16.4719 18.9807 16.7752C19.0186 17.0786 19.1817 17.354 19.5079 17.9047L19.8048 18.4061Z" fill="black"/>
<path opacity="0.5" fill-rule="evenodd" clip-rule="evenodd" d="M27.5379 11.2121C27.904 11.5782 27.904 12.1718 27.5379 12.5379L25.0379 15.0379C24.6718 15.404 24.0782 15.404 23.7121 15.0379C23.346 14.6717 23.346 14.0782 23.7121 13.7121L26.2121 11.2121C26.5782 10.846 27.1718 10.846 27.5379 11.2121ZM25.6629 4.33708C26.029 4.7032 26.029 5.2968 25.6629 5.66291L22.5379 8.78791C22.1718 9.15402 21.5782 9.15402 21.2121 8.78791C20.846 8.4218 20.846 7.8282 21.2121 7.46208L24.3371 4.33708C24.7032 3.97097 25.2968 3.97097 25.6629 4.33708ZM23.1629 15.5871C23.529 15.9532 23.529 16.5467 23.1629 16.9129L22.5379 17.5379C22.1718 17.904 21.5782 17.904 21.2121 17.5379C20.846 17.1717 20.846 16.5782 21.2121 16.2121L21.8371 15.5871C22.2032 15.221 22.7968 15.221 23.1629 15.5871ZM20.6629 1.83708C21.029 2.2032 21.029 2.7968 20.6629 3.16291L20.0379 3.78791C19.6718 4.15402 19.0782 4.15402 18.7121 3.78791C18.346 3.4218 18.346 2.8282 18.7121 2.46208L19.3371 1.83708C19.7032 1.47097 20.2968 1.47097 20.6629 1.83708ZM17.5379 4.96208C17.904 5.3282 17.904 5.9218 17.5379 6.28791L15.6629 8.16291C15.2968 8.52902 14.7033 8.52902 14.3371 8.16291C13.971 7.7968 13.971 7.2032 14.3371 6.83708L16.2121 4.96208C16.5783 4.59597 17.1718 4.59597 17.5379 4.96208Z" fill="black"/>
</svg>
