<svg width="30" height="30" viewBox="0 0 30 30" fill="none" xmlns="http://www.w3.org/2000/svg">
<path d="M27.5005 15.1311C27.5005 17.6034 26.7674 20.0203 25.3938 22.076C24.0202 24.1317 22.0679 25.7339 19.7837 26.68C17.4996 27.6262 14.9861 27.8737 12.5613 27.3914C10.1364 26.909 7.90901 25.7185 6.16078 23.9703C4.41255 22.222 3.22199 19.9946 2.73965 17.5698C2.25731 15.1449 2.50487 12.6315 3.451 10.3473C4.39714 8.06313 5.99936 6.11082 8.05506 4.73724C10.1108 3.36367 12.5276 2.63052 15 2.63052C16.6416 2.63052 18.2671 2.95386 19.7837 3.58207C21.3004 4.21028 22.6784 5.13106 23.8392 6.29184C25 7.45262 25.9208 8.83067 26.549 10.3473C27.1772 11.8639 27.5005 13.4895 27.5005 15.1311ZM22.6374 11.9842L20.3131 11.7095L17.9684 11.4316L15.9995 7.1621C15.4547 5.98263 14.5658 5.98263 14.021 7.1621L12.0521 11.4316L9.70735 11.7095L7.38472 11.9842C6.09472 12.1374 5.81998 12.9837 6.77367 13.8663L8.49156 15.4547L10.2252 17.0574L9.76419 19.3737L9.30788 21.6679C9.05525 22.9421 9.77525 23.4647 10.9089 22.8316L15.011 20.5342L19.1131 22.8316C20.2452 23.4647 20.9652 22.9421 20.7126 21.6679L19.7968 17.0574L21.5289 15.4547L23.2484 13.8663C24.2021 12.9837 23.9274 12.1374 22.6374 11.9842Z" fill="black"/>
</svg>
