<svg width="30" height="30" viewBox="0 0 30 30" fill="none" xmlns="http://www.w3.org/2000/svg">
<path d="M23.374 18.0732C22.9365 18.5107 22.6865 19.3857 22.824 19.9857L23.6865 23.7607C24.049 25.3232 23.824 26.4982 23.049 27.0607C22.7365 27.2857 22.3615 27.3982 21.924 27.3982C21.2865 27.3982 20.5365 27.1607 19.7115 26.6732L16.049 24.4982C15.474 24.1607 14.524 24.1607 13.949 24.4982L10.2865 26.6732C8.89902 27.4857 7.71152 27.6232 6.94902 27.0607C6.89902 27.0232 6.84902 26.9857 6.81152 26.9357L22.5865 11.1607C23.1615 10.5857 23.974 10.3232 24.774 10.4607L24.9615 10.4982C26.2865 10.7232 27.174 11.3232 27.4615 12.1982C27.7365 13.0732 27.3615 14.0857 26.4115 15.0357L23.374 18.0732Z" fill="white"/>
<path d="M7.17421 20C7.31171 19.4 7.06171 18.5125 6.62421 18.075L3.58671 15.0375C2.63671 14.0875 2.26171 13.075 2.53671 12.2C2.82421 11.325 3.71171 10.725 5.03671 10.5L8.93671 9.85C9.49921 9.75 10.1867 9.25 10.4492 8.7375L12.5993 4.425C13.2243 3.1875 14.0743 2.5 14.9993 2.5C15.9243 2.5 16.7743 3.1875 17.3993 4.425L19.5493 8.7375C19.7118 9.0625 20.0493 9.375 20.4118 9.5875L6.33671 23.6625L7.17421 20Z" fill="white"/>
<path d="M27.2136 2.78613C26.8386 2.41113 26.2261 2.41113 25.8511 2.78613L2.78857 25.8611C2.41357 26.2361 2.41357 26.8486 2.78857 27.2236C2.97607 27.3986 3.21357 27.4986 3.46357 27.4986C3.71357 27.4986 3.95107 27.3986 4.13857 27.2111L27.2136 4.13613C27.6011 3.76113 27.6011 3.16113 27.2136 2.78613Z" fill="white"/>
</svg>
