<svg width="30" height="30" viewBox="0 0 30 30" fill="none" xmlns="http://www.w3.org/2000/svg">
<path d="M10.1952 11.5939C9.04735 9.65575 8.47345 8.68663 8.88065 7.97488C9.28784 7.26313 10.4065 7.28025 12.6438 7.31425L13.2225 7.323C13.8583 7.33263 14.1761 7.3375 14.4555 7.219C14.7348 7.1005 14.944 6.87213 15.3624 6.41538L15.7433 5.99963C17.2156 4.39225 17.9518 3.58863 18.7785 3.777C19.6051 3.96538 19.9749 5.02113 20.7143 7.13238L20.9056 7.67863C21.1158 8.27863 21.2208 8.57863 21.4314 8.80875C21.6421 9.03888 21.9345 9.17313 22.5191 9.44163L23.0515 9.686C25.1093 10.6309 26.1381 11.1033 26.2419 11.9314C26.3456 12.7595 25.4555 13.395 23.6753 14.6659L23.2146 14.9946C22.7088 15.3558 22.4559 15.5364 22.3066 15.7971C22.1575 16.0578 22.129 16.3691 22.072 16.9919L22.0201 17.5587C21.8196 19.7499 21.7193 20.8456 20.9568 21.169C20.1941 21.4924 19.2743 20.8295 17.4346 19.5036L16.9586 19.1605C16.4359 18.7838 16.1745 18.5954 15.8716 18.5263C15.5689 18.4573 15.2589 18.5155 14.6389 18.6319L14.0745 18.7378C11.8928 19.1473 10.8019 19.352 10.2269 18.7237C9.65188 18.0955 9.9735 17.0503 10.6167 14.96L10.7832 14.4191C10.966 13.8251 11.0573 13.5281 11.0193 13.2248C10.9814 12.9214 10.8183 12.646 10.4921 12.0953L10.1952 11.5939Z" fill="white"/>
<path opacity="0.5" fill-rule="evenodd" clip-rule="evenodd" d="M2.46208 18.7879C2.09597 18.4218 2.09597 17.8282 2.46208 17.4621L4.96208 14.9621C5.3282 14.596 5.9218 14.596 6.28791 14.9621C6.65402 15.3283 6.65402 15.9218 6.28791 16.2879L3.78791 18.7879C3.4218 19.154 2.8282 19.154 2.46208 18.7879ZM4.33708 25.6629C3.97097 25.2968 3.97097 24.7032 4.33708 24.3371L7.46208 21.2121C7.8282 20.846 8.4218 20.846 8.78791 21.2121C9.15402 21.5782 9.15402 22.1718 8.78791 22.5379L5.66291 25.6629C5.2968 26.029 4.7032 26.029 4.33708 25.6629ZM6.83708 14.4129C6.47097 14.0468 6.47097 13.4533 6.83708 13.0871L7.46208 12.4621C7.8282 12.096 8.4218 12.096 8.78791 12.4621C9.15402 12.8283 9.15402 13.4218 8.78791 13.7879L8.16291 14.4129C7.7968 14.779 7.2032 14.779 6.83708 14.4129ZM9.33708 28.1629C8.97097 27.7968 8.97097 27.2032 9.33708 26.8371L9.96208 26.2121C10.3282 25.846 10.9218 25.846 11.2879 26.2121C11.654 26.5782 11.654 27.1718 11.2879 27.5379L10.6629 28.1629C10.2968 28.529 9.7032 28.529 9.33708 28.1629ZM12.4621 25.0379C12.096 24.6718 12.096 24.0782 12.4621 23.7121L14.3371 21.8371C14.7032 21.471 15.2967 21.471 15.6629 21.8371C16.029 22.2032 16.029 22.7968 15.6629 23.1629L13.7879 25.0379C13.4217 25.404 12.8282 25.404 12.4621 25.0379Z" fill="white"/>
</svg>
