<svg width="30" height="30" viewBox="0 0 30 30" fill="none" xmlns="http://www.w3.org/2000/svg">
<path d="M19.2369 6.51407L20.9994 10.0391C21.2369 10.5266 21.8744 10.9891 22.4119 11.0891L25.5994 11.6141C27.6369 11.9516 28.1119 13.4266 26.6494 14.9016L24.1619 17.3891C23.7494 17.8016 23.5119 18.6141 23.6494 19.2016L24.3619 22.2766C24.9244 24.7016 23.6244 25.6516 21.4869 24.3766L18.4994 22.6016C17.9619 22.2766 17.0619 22.2766 16.5244 22.6016L13.5369 24.3766C11.3993 25.6391 10.0993 24.7016 10.6618 22.2766L11.3743 19.2016C11.4868 18.6016 11.2493 17.7891 10.8368 17.3766L8.34932 14.8891C6.88682 13.4266 7.36182 11.9516 9.39932 11.6016L12.5869 11.0766C13.1244 10.9891 13.7619 10.5141 13.9994 10.0266L15.7619 6.50157C16.7244 4.60157 18.2744 4.60157 19.2369 6.51407Z" fill="black"/>
<path d="M10 7.1875H2.5C1.9875 7.1875 1.5625 6.7625 1.5625 6.25C1.5625 5.7375 1.9875 5.3125 2.5 5.3125H10C10.5125 5.3125 10.9375 5.7375 10.9375 6.25C10.9375 6.7625 10.5125 7.1875 10 7.1875Z" fill="black"/>
<path d="M6.25 24.6875H2.5C1.9875 24.6875 1.5625 24.2625 1.5625 23.75C1.5625 23.2375 1.9875 22.8125 2.5 22.8125H6.25C6.7625 22.8125 7.1875 23.2375 7.1875 23.75C7.1875 24.2625 6.7625 24.6875 6.25 24.6875Z" fill="black"/>
<path d="M3.75 15.9375H2.5C1.9875 15.9375 1.5625 15.5125 1.5625 15C1.5625 14.4875 1.9875 14.0625 2.5 14.0625H3.75C4.2625 14.0625 4.6875 14.4875 4.6875 15C4.6875 15.5125 4.2625 15.9375 3.75 15.9375Z" fill="black"/>
</svg>
