<svg width="30" height="35" viewBox="0 0 30 35" fill="none" xmlns="http://www.w3.org/2000/svg">
<path d="M20.9193 33.9816C20.6977 33.9816 20.5181 33.8175 20.5181 33.615V24.9928C20.5181 24.7903 20.6977 24.6261 20.9193 24.6261C21.1408 24.6261 21.3205 24.7903 21.3205 24.9928V33.615C21.3205 33.8175 21.1408 33.9816 20.9193 33.9816Z" fill="#808080"/>
<path d="M22.1229 33.2891V33.9001C22.1229 34.5079 21.5844 35 20.9193 35C20.2542 35 19.7157 34.5079 19.7157 33.9001V33.2891C19.7157 32.6821 20.2542 32.1892 20.9193 32.1892C21.2518 32.1892 21.5532 32.3122 21.7707 32.5118C21.9882 32.7106 22.1229 32.9852 22.1229 33.2891Z" fill="#F7B239"/>
<path d="M26.6742 7.89409C29.8561 8.31612 31.1265 11.8895 28.8246 13.9401L26.1865 16.2898C25.2727 17.1037 24.8554 18.277 25.0712 19.4273L25.6935 22.7449C26.1838 25.3546 23.5307 27.406 20.9193 26.7852C20.6331 26.7168 20.347 26.6166 20.0652 26.4812L16.8048 24.9154C15.6752 24.3727 14.3254 24.3727 13.195 24.9154L9.93464 26.4812C7.08874 27.8492 3.76329 25.6405 4.30633 22.7449L4.92943 19.4273C5.14527 18.277 4.72794 17.1037 3.81321 16.2898L1.17603 13.9401C-1.12674 11.8895 0.143621 8.31604 3.32554 7.89409L6.97106 7.40933C8.23438 7.24223 9.32652 6.51631 9.89176 5.47028L11.5215 2.45164C12.9444 -0.182367 17.0553 -0.182367 18.4782 2.45164L20.1088 5.47028C20.6741 6.51631 21.7662 7.24223 23.0295 7.40933L26.6742 7.89409Z" fill="#3A88D6"/>
<path d="M16.6735 24.8551C16.6728 24.8554 16.6721 24.8557 16.6715 24.8559C16.716 24.8753 16.7608 24.8942 16.8048 24.9153C16.7614 24.8945 16.7176 24.8744 16.6735 24.8551Z" fill="#F7B239"/>
<path d="M18.3463 24.5091C17.7745 24.5091 17.2026 24.6245 16.6735 24.8551C16.7175 24.8743 16.7613 24.8944 16.8047 24.9153L20.0651 26.4811C20.0915 26.4938 20.1179 26.5062 20.1444 26.5183C20.1554 26.5233 20.1663 26.5282 20.1774 26.5332C20.4228 26.6425 20.671 26.7258 20.9191 26.785C21.2372 26.8606 21.5558 26.8966 21.8693 26.8966C22.4586 26.8966 23.0296 26.7698 23.5445 26.5422C23.499 26.5223 23.4535 26.503 23.4082 26.4811L20.1478 24.9153C19.5839 24.6443 18.9652 24.5091 18.3463 24.5091Z" fill="#3784C4"/>
<path d="M8.66241 26.8617C8.66099 26.8619 8.65974 26.862 8.65831 26.8622C8.65983 26.8621 8.66108 26.862 8.66241 26.8617ZM8.67641 26.8598C8.67409 26.8602 8.67177 26.8605 8.66946 26.8608C8.67169 26.8605 8.67418 26.8602 8.67641 26.8598ZM8.69005 26.858C8.68756 26.8584 8.68506 26.8587 8.68265 26.859C8.68506 26.8587 8.68764 26.8584 8.69005 26.858ZM8.7045 26.856C8.70146 26.8564 8.69879 26.8568 8.69576 26.8572C8.6987 26.8568 8.70146 26.8564 8.7045 26.856ZM8.71849 26.854C8.71528 26.8544 8.7119 26.8549 8.70877 26.8554C8.71207 26.8549 8.71519 26.8545 8.71849 26.854ZM8.73294 26.8519C8.72919 26.8524 8.72598 26.8529 8.72224 26.8535C8.72571 26.8529 8.72946 26.8523 8.73294 26.8519ZM8.74738 26.8497C8.74346 26.8503 8.73962 26.8509 8.73579 26.8514C8.73953 26.8509 8.74354 26.8503 8.74738 26.8497ZM8.76262 26.8474C8.75817 26.848 8.75371 26.8488 8.74934 26.8494C8.75362 26.8488 8.75826 26.848 8.76262 26.8474ZM9.18789 26.7578C9.15481 26.7666 9.12209 26.7748 9.08902 26.7828C9.12201 26.7749 9.15508 26.7666 9.18789 26.7578ZM9.20126 26.7542C9.1977 26.7552 9.1944 26.756 9.19083 26.757C9.19413 26.7561 9.19796 26.7551 9.20126 26.7542ZM9.21464 26.7506C9.21214 26.7512 9.20973 26.752 9.20724 26.7526C9.20964 26.752 9.21223 26.7512 9.21464 26.7506ZM9.22792 26.7469C9.22578 26.7475 9.22364 26.7481 9.2215 26.7487C9.22382 26.7481 9.22569 26.7476 9.22792 26.7469ZM9.25377 26.7397C9.25253 26.74 9.25155 26.7403 9.2503 26.7406C9.25128 26.7404 9.2527 26.74 9.25377 26.7397ZM9.26643 26.7361C9.26572 26.7362 9.2651 26.7365 9.26438 26.7367C9.26492 26.7365 9.2659 26.7362 9.26643 26.7361ZM9.27918 26.7324C9.27865 26.7326 9.27838 26.7327 9.27785 26.7328C9.27838 26.7327 9.27865 26.7325 9.27918 26.7324ZM4.2967 22.7983C4.2967 22.7984 4.2967 22.7983 4.2967 22.7985V22.7983ZM4.98524 18.8341C4.98489 19.0311 4.96652 19.2295 4.92943 19.4273L4.30633 22.7448C4.30544 22.7494 4.30464 22.7537 4.30384 22.7583C4.30464 22.7539 4.30553 22.7492 4.30633 22.7448L4.92943 19.4273C4.96652 19.2296 4.98489 19.0312 4.98524 18.8341ZM11.5379 2.42174C11.5325 2.43168 11.5269 2.4417 11.5215 2.45172L9.89176 5.47028C9.32653 6.5163 8.23438 7.24223 6.97107 7.40933L3.32555 7.89409C1.26225 8.16767 0.00267463 9.76641 0 11.4158C0.00276378 9.76641 1.26225 8.16767 3.32555 7.89409L6.97107 7.40933C8.23438 7.24223 9.32653 6.5163 9.89176 5.47028L11.5215 2.45164C11.5269 2.4417 11.5324 2.4316 11.5379 2.42174ZM11.5813 2.34515C11.5674 2.36903 11.5537 2.39322 11.5401 2.41758C11.5537 2.39314 11.5674 2.36903 11.5813 2.34515ZM11.7388 2.0987C11.7361 2.10253 11.7334 2.10636 11.7308 2.11027C11.7334 2.10644 11.7361 2.10245 11.7388 2.0987ZM11.7485 2.08477C11.7473 2.0864 11.7462 2.08803 11.745 2.08974C11.7463 2.08795 11.7472 2.08648 11.7485 2.08477ZM11.7583 2.07092C11.7576 2.07198 11.7568 2.07304 11.7561 2.0741C11.7568 2.07295 11.7576 2.0719 11.7583 2.07092ZM11.7682 2.05707C11.7677 2.0578 11.7672 2.05853 11.7667 2.05919C11.7671 2.05853 11.7677 2.0578 11.7682 2.05707Z" fill="#A5A5A5"/>
<path d="M14.9975 0.477631C13.7606 0.477631 12.5243 1.0037 11.7682 2.05706C11.7677 2.05779 11.7672 2.05852 11.7667 2.05918C11.7639 2.063 11.7611 2.067 11.7583 2.07083C11.7576 2.07189 11.7568 2.07294 11.7561 2.074C11.7536 2.07759 11.751 2.08117 11.7485 2.08476C11.7472 2.08647 11.7463 2.08794 11.745 2.08973C11.743 2.09274 11.7408 2.09568 11.7388 2.09869C11.7361 2.10244 11.7334 2.10643 11.7308 2.11026C11.7302 2.11107 11.7296 2.11189 11.7291 2.1127C11.6781 2.1866 11.6294 2.26318 11.5832 2.34205C11.5826 2.34303 11.582 2.34417 11.5814 2.34514C11.5674 2.36902 11.5538 2.39313 11.5402 2.41757C11.5394 2.41904 11.5387 2.42026 11.5379 2.42173C11.5325 2.43167 11.5269 2.44169 11.5215 2.45171L9.89177 5.47027C9.32653 6.51629 8.23439 7.24222 6.97107 7.40932L3.32555 7.89408C1.26225 8.16766 0.00267929 9.7664 4.66255e-06 11.4158C-0.00151096 12.3101 0.366429 13.2192 1.17604 13.9401L3.81323 16.2898C4.57077 16.9638 4.98712 17.8842 4.98534 18.8341C4.98498 19.0312 4.96662 19.2296 4.92953 19.4273L4.30643 22.7449C4.30562 22.7493 4.30473 22.7539 4.30393 22.7583C4.30152 22.7715 4.29912 22.7851 4.2968 22.7983V22.7985C3.908 25.0645 5.88642 26.8966 8.12847 26.8966C8.30384 26.8966 8.48099 26.8853 8.65858 26.8623C8.66001 26.8621 8.66126 26.8619 8.66269 26.8618C8.66509 26.8615 8.66723 26.8612 8.66973 26.8609C8.67205 26.8606 8.67437 26.8602 8.67668 26.8599C8.67873 26.8597 8.68078 26.8593 8.68292 26.8591C8.68542 26.8588 8.68792 26.8584 8.69032 26.8581C8.6922 26.8579 8.69416 26.8576 8.69603 26.8573C8.69906 26.8569 8.70174 26.8565 8.70477 26.8561C8.70619 26.8559 8.70762 26.8557 8.70905 26.8555C8.71226 26.855 8.71564 26.8545 8.71876 26.8541C8.72001 26.854 8.72126 26.8537 8.72251 26.8536C8.72625 26.853 8.72946 26.8525 8.73321 26.8519C8.73428 26.8518 8.73499 26.8517 8.73606 26.8515C8.73998 26.8509 8.74382 26.8504 8.74765 26.8498C8.74836 26.8497 8.7489 26.8496 8.74952 26.8495C8.75398 26.8488 8.75844 26.8481 8.76281 26.8474C8.76299 26.8474 8.76281 26.8474 8.76298 26.8474C8.87149 26.8305 8.98061 26.809 9.0892 26.7829C9.08902 26.7829 9.08938 26.7829 9.0892 26.7829C9.12228 26.7749 9.15509 26.7667 9.18816 26.7579C9.18923 26.7577 9.19003 26.7574 9.19101 26.7572C9.19458 26.7562 9.19788 26.7554 9.20145 26.7544C9.2035 26.7538 9.20537 26.7533 9.20742 26.7528C9.20992 26.7521 9.21232 26.7514 9.21482 26.7507C9.21705 26.7502 9.21945 26.7494 9.22168 26.7489C9.22382 26.7483 9.22596 26.7476 9.2281 26.7471C9.23087 26.7463 9.23372 26.7455 9.23648 26.7448C9.23791 26.7444 9.2396 26.7439 9.24094 26.7435C9.24424 26.7426 9.24709 26.7418 9.25039 26.7408C9.25164 26.7405 9.25262 26.7401 9.25387 26.7398C9.25752 26.7388 9.26082 26.7379 9.26448 26.7368C9.26519 26.7366 9.26581 26.7364 9.26653 26.7362C9.27036 26.7352 9.27411 26.7341 9.27794 26.733C9.27848 26.7328 9.27874 26.7327 9.27928 26.7326C9.45366 26.6819 9.62734 26.619 9.79967 26.5434C8.33906 25.8985 7.3317 24.4397 7.64945 22.7451L8.27264 19.4275C8.48848 18.2771 8.07115 17.1039 7.15642 16.29L4.51924 13.9402C2.21638 11.8897 3.48683 8.31619 6.66884 7.89424L10.3144 7.40948C11.5777 7.24238 12.6698 6.51646 13.2351 5.47043L14.8647 2.45179C15.2814 1.68065 15.929 1.13699 16.6715 0.817453C16.1454 0.590959 15.5713 0.477631 14.9975 0.477631Z" fill="#3784C4"/>
<path d="M20.5866 12.3836C20.5866 13.1332 19.9215 13.7418 19.1013 13.7418C18.9622 13.7418 18.8276 13.7247 18.7001 13.6913C18.0743 13.5316 17.6151 13.0061 17.6151 12.3836C17.6151 11.7612 18.0743 11.2357 18.7001 11.076C18.8276 11.0426 18.9622 11.0255 19.1013 11.0255C19.9215 11.0255 20.5866 11.6341 20.5866 12.3836Z" fill="#E5A030"/>
<path d="M17.3183 14.7732C17.3183 15.9432 16.2805 16.8915 15.0003 16.8915C14.863 16.8915 14.7292 16.8809 14.5991 16.8589C13.5096 16.6862 12.6823 15.8177 12.6823 14.7732H17.3183Z" fill="#E5A030"/>
<path d="M12.3845 12.3836C12.3845 13.1332 11.7194 13.7418 10.8992 13.7418C10.7601 13.7418 10.6255 13.7247 10.498 13.6913C9.87211 13.5316 9.41296 13.0061 9.41296 12.3836C9.41296 11.7612 9.87211 11.2357 10.498 11.076C10.6255 11.0426 10.7601 11.0255 10.8992 11.0255C11.7194 11.0255 12.3845 11.6341 12.3845 12.3836Z" fill="#E5A030"/>
<path d="M19.7842 12.3836C19.7842 13.0061 19.326 13.5308 18.7001 13.6913C18.0743 13.5316 17.6151 13.0061 17.6151 12.3836C17.6151 11.7612 18.0743 11.2357 18.7001 11.076C19.326 11.2365 19.7842 11.7612 19.7842 12.3836Z" fill="#F7B239"/>
<path d="M16.5159 14.7732C16.5159 15.8177 15.6885 16.6862 14.5991 16.8589C13.5096 16.6862 12.6823 15.8177 12.6823 14.7732H16.5159Z" fill="#F7B239"/>
<path d="M11.5821 12.3836C11.5821 13.0061 11.1238 13.5308 10.498 13.6913C9.87211 13.5316 9.41296 13.0061 9.41296 12.3836C9.41296 11.7612 9.87211 11.2357 10.498 11.076C11.1238 11.2365 11.5821 11.7612 11.5821 12.3836Z" fill="#F7B239"/>
<path d="M6.35234 4.31826C6.2154 4.31826 6.07855 4.27051 5.97406 4.17511L3.1657 1.60872C2.95681 1.41783 2.95681 1.10832 3.1657 0.917429C3.37459 0.726539 3.71337 0.726539 3.92217 0.917429L6.73054 3.48381C6.93943 3.6747 6.93943 3.98422 6.73054 4.17511C6.62614 4.27051 6.48929 4.31826 6.35234 4.31826Z" fill="#F7B239"/>
<path d="M8.13537 2.85183C7.914 2.85183 7.70698 2.7253 7.63013 2.5235L6.9169 0.649629C6.8199 0.39462 6.96736 0.116065 7.24641 0.0273415C7.52538 -0.061545 7.83029 0.073455 7.92737 0.328464L8.64061 2.20233C8.73761 2.45734 8.59015 2.7359 8.31109 2.82462C8.25297 2.84311 8.19368 2.85183 8.13537 2.85183Z" fill="#F7B239"/>
<path d="M4.837 6.19221C4.78957 6.19221 4.74143 6.18643 4.69355 6.17429L3.08878 5.76692C2.80411 5.69466 2.63748 5.42523 2.71656 5.16509C2.79564 4.90503 3.09056 4.75283 3.37514 4.82494L4.97992 5.2323C5.26459 5.30457 5.43122 5.574 5.35214 5.83414C5.28634 6.05045 5.0713 6.19221 4.837 6.19221Z" fill="#F7B239"/>
<path d="M23.6482 4.31826C23.5113 4.31826 23.3744 4.27051 23.2699 4.17511C23.0611 3.98422 23.0611 3.6747 23.2699 3.48381L26.0783 0.917429C26.2872 0.726539 26.626 0.726539 26.8348 0.917429C27.0437 1.10832 27.0437 1.41783 26.8348 1.60872L24.0264 4.17511C23.922 4.27051 23.7852 4.31826 23.6482 4.31826Z" fill="#F7B239"/>
<path d="M21.8651 2.85188C21.8068 2.85188 21.7476 2.84316 21.6894 2.82467C21.4104 2.73595 21.2629 2.45739 21.3599 2.20238L22.0731 0.328514C22.1702 0.0735863 22.4749 -0.0613323 22.7541 0.0273913C23.0331 0.116115 23.1806 0.39467 23.0836 0.649679L22.3704 2.52355C22.2935 2.72536 22.0865 2.85188 21.8651 2.85188Z" fill="#F7B239"/>
<path d="M25.1637 6.19221C24.9294 6.19221 24.7144 6.05044 24.6486 5.83405C24.5695 5.57391 24.7361 5.30448 25.0208 5.23221L26.6256 4.82485C26.9102 4.75275 27.2051 4.90486 27.2841 5.165C27.3632 5.42514 27.1966 5.69457 26.9119 5.76684L25.3071 6.1742C25.2593 6.18642 25.211 6.19221 25.1637 6.19221Z" fill="#F7B239"/>
<path d="M6.89076 23.2724C6.59914 23.2724 6.35592 23.0497 6.35583 22.7836C6.35575 22.5178 6.60012 22.2948 6.89076 22.2948C7.18123 22.2948 7.42578 22.518 7.42569 22.7836C7.4256 23.0494 7.18221 23.2724 6.89076 23.2724Z" fill="#F7B239"/>
<path d="M9.04555 23.1315C8.75464 23.1315 8.5108 22.9084 8.51062 22.6426C8.51044 22.3756 8.75401 22.1538 9.04555 22.1538C9.33191 22.1538 9.57254 22.3678 9.58012 22.6298C9.58787 22.9 9.34198 23.1315 9.04555 23.1315Z" fill="#F7B239"/>
<path d="M8.0079 24.8147C7.70718 24.8147 7.45844 24.5764 7.47369 24.3019C7.4884 24.0374 7.73955 23.8269 8.02939 23.8376C8.31236 23.848 8.54301 24.0666 8.54283 24.3259C8.54274 24.5916 8.29908 24.8147 8.0079 24.8147Z" fill="#F7B239"/>
<path d="M23.1089 23.2724C22.8179 23.2724 22.5737 23.0494 22.5748 22.7836C22.576 22.518 22.8172 22.2949 23.1089 22.2948C23.3994 22.2947 23.6447 22.5178 23.6447 22.7836C23.6447 23.0499 23.4003 23.2724 23.1089 23.2724Z" fill="#F7B239"/>
<path d="M20.9549 23.1315C20.6528 23.1315 20.4046 22.8925 20.4207 22.617C20.436 22.3549 20.683 22.1467 20.9698 22.1538C21.2451 22.1608 21.4751 22.3671 21.4891 22.6184C21.5044 22.8926 21.2555 23.1315 20.9549 23.1315Z" fill="#F7B239"/>
<path d="M21.9926 24.8147C21.6917 24.8147 21.4421 24.5768 21.4575 24.3019C21.4716 24.0477 21.7053 23.841 21.9841 23.8375C22.2685 23.8338 22.5132 24.0419 22.5261 24.3019C22.5397 24.5763 22.2951 24.8147 21.9926 24.8147Z" fill="#F7B239"/>
<path d="M4.10109 11.9037C3.80982 11.9037 3.56607 11.6807 3.56616 11.4148C3.56625 11.1436 3.81954 10.9184 4.11624 10.9262C4.41197 10.934 4.64939 11.1687 4.63539 11.4388C4.62211 11.6956 4.38255 11.9037 4.10109 11.9037Z" fill="#F7B239"/>
<path d="M6.10707 12.6369C5.81562 12.6369 5.57223 12.4139 5.57214 12.1481C5.57205 11.8823 5.81625 11.6594 6.10707 11.6594C6.3986 11.6594 6.642 11.8816 6.642 12.1481C6.642 12.4145 6.39869 12.6369 6.10707 12.6369Z" fill="#F7B239"/>
<path d="M4.36854 13.7368C4.07728 13.7368 3.83353 13.514 3.83362 13.248C3.83371 12.9871 4.06854 12.767 4.35357 12.7593C4.63654 12.7517 4.88466 12.9578 4.90231 13.2162C4.9213 13.4943 4.67434 13.7368 4.36854 13.7368Z" fill="#F7B239"/>
<path d="M25.8985 11.9037C25.607 11.9037 25.3634 11.6808 25.3635 11.4148C25.3636 11.1407 25.621 10.9169 25.9199 10.9269C26.2124 10.9368 26.4476 11.1713 26.4328 11.4388C26.4185 11.6955 26.1804 11.9037 25.8985 11.9037Z" fill="#F7B239"/>
<path d="M23.8925 12.6369C23.601 12.6369 23.3576 12.4139 23.3575 12.1481C23.3575 11.8823 23.6016 11.6594 23.8925 11.6594C24.184 11.6594 24.4274 11.8816 24.4274 12.1481C24.4274 12.4145 24.1841 12.6369 23.8925 12.6369Z" fill="#F7B239"/>
<path d="M25.631 13.7368C25.327 13.7368 25.0767 13.4939 25.0973 13.2162C25.1164 12.958 25.3621 12.7517 25.646 12.7593C25.9313 12.7669 26.1657 12.9869 26.1659 13.248C26.1662 13.5142 25.922 13.7368 25.631 13.7368Z" fill="#F7B239"/>
</svg>
