<svg width="30" height="30" viewBox="0 0 30 30" fill="none" xmlns="http://www.w3.org/2000/svg">
<path d="M27.5006 15.1311C27.5006 17.6034 26.7674 20.0203 25.3939 22.076C24.0203 24.1317 22.068 25.7339 19.7838 26.68C17.4996 27.6262 14.9862 27.8737 12.5613 27.3914C10.1364 26.909 7.90907 25.7185 6.16084 23.9703C4.41261 22.222 3.22205 19.9946 2.73971 17.5698C2.25738 15.1449 2.50493 12.6315 3.45106 10.3473C4.3972 8.06313 5.99942 6.11082 8.05512 4.73724C10.1108 3.36367 12.5277 2.63052 15 2.63052C16.6416 2.63052 18.2672 2.95386 19.7838 3.58207C21.3004 4.21028 22.6785 5.13106 23.8393 6.29184C25 7.45262 25.9208 8.83067 26.549 10.3473C27.1772 11.8639 27.5006 13.4895 27.5006 15.1311ZM22.6374 11.9842L20.3132 11.7095L17.9685 11.4316L15.9995 7.1621C15.4548 5.98263 14.5658 5.98263 14.0211 7.1621L12.0521 11.4316L9.70741 11.7095L7.38478 11.9842C6.09478 12.1374 5.82004 12.9837 6.77373 13.8663L8.49162 15.4547L10.2253 17.0574L9.76425 19.3737L9.30794 21.6679C9.05531 22.9421 9.77531 23.4647 10.909 22.8316L15.0111 20.5342L19.1132 22.8316C20.2453 23.4647 20.9653 22.9421 20.7127 21.6679L19.7969 17.0574L21.529 15.4547L23.2485 13.8663C24.2021 12.9837 23.9274 12.1374 22.6374 11.9842Z" fill="white"/>
</svg>
