<svg width="20" height="20" viewBox="0 0 20 20" fill="none" xmlns="http://www.w3.org/2000/svg">
<path d="M19.4982 9.20754L2.29391 0.200164C2.0809 0.0886459 1.82762 0.0207361 1.56245 0.00404448C1.29727 -0.0126472 1.03067 0.0225387 0.792525 0.10566C0.554381 0.188781 0.354099 0.316552 0.214121 0.474658C0.0741429 0.632763 0 0.814956 0 1.00082V19.0156C0.000802445 19.2004 0.0749011 19.3814 0.214083 19.5387C0.353265 19.6959 0.552094 19.8231 0.788531 19.9063C1.01766 19.9809 1.27096 20.0118 1.52274 19.996C1.77453 19.9802 2.01584 19.9181 2.22222 19.8162L19.4265 10.8088C19.6046 10.7156 19.7491 10.5947 19.8486 10.4558C19.9482 10.3168 20 10.1636 20 10.0082C20 9.85282 19.9482 9.69958 19.8486 9.56061C19.7491 9.42164 19.6046 9.30076 19.4265 9.20754H19.4982Z" fill="black"/>
</svg>
