<svg width="30" height="30" viewBox="0 0 30 30" fill="none" xmlns="http://www.w3.org/2000/svg">
<g clip-path="url(#clip0_49_251)">
<path d="M28.6132 20.2744C28.7785 20.4367 28.6643 20.7184 28.4322 20.7192L22.2307 20.7372C23.3012 19.3917 24.0021 17.7398 24.1839 15.9345L28.6132 20.2744Z" fill="#F78A68"/>
<path d="M28.3548 9.10354C28.587 9.10131 28.7056 9.38151 28.5419 9.54604L24.1704 13.9416C23.9653 12.1431 23.2426 10.5009 22.1548 9.16893L22.1556 9.16817L28.3548 9.10354Z" fill="#F78A68"/>
<path d="M24.2305 15C24.2305 15.3155 24.2147 15.6273 24.1839 15.9346C24.0021 17.7398 23.3012 19.3918 22.2307 20.7373C21.8168 21.2594 21.3472 21.7349 20.8311 22.1556C19.4992 23.2426 17.857 23.9653 16.0585 24.1704H16.0577C15.7107 24.2102 15.3576 24.2305 15 24.2305C14.6845 24.2305 14.372 24.2147 14.0647 24.1839C12.2595 24.0021 10.6075 23.3004 9.26201 22.2299C8.74064 21.8167 8.2651 21.3472 7.84439 20.8311C6.7566 19.4984 6.03467 17.857 5.82959 16.0577V16.057C5.78974 15.7099 5.76947 15.3576 5.76947 15C5.76947 14.6845 5.78523 14.372 5.81605 14.0647C5.99787 12.2595 6.69953 10.6075 7.77004 9.26203C8.18324 8.74067 8.65275 8.26588 9.16808 7.84518C10.5 6.75738 12.1422 6.03469 13.9415 5.82961H13.9422C14.2893 5.78977 14.6424 5.76949 15 5.76949C15.3155 5.76949 15.6273 5.78525 15.9345 5.81608C17.7398 5.99789 19.3918 6.69879 20.7372 7.76854C21.2594 8.1832 21.7349 8.65272 22.1549 9.16887C23.2427 10.5008 23.9653 12.143 24.1704 13.9415C24.2102 14.2886 24.2305 14.6424 24.2305 15Z" fill="#F0C419"/>
<path d="M20.8957 28.3548C20.8979 28.5869 20.6177 28.7056 20.4532 28.5418L16.0584 24.1704C17.8569 23.9653 19.4991 23.2426 20.831 22.1556L20.8957 28.3548Z" fill="#F78A68"/>
<path d="M20.7192 1.56709L20.7372 7.76859C19.3917 6.69885 17.7398 5.99795 15.9345 5.81613L20.2744 1.3868C20.4367 1.22074 20.7185 1.3357 20.7192 1.56709Z" fill="#F78A68"/>
<path d="M14.0647 24.1839L9.7248 28.6133C9.56255 28.7786 9.28083 28.6644 9.28007 28.4322L9.26202 22.23C10.6075 23.3004 12.2594 24.0021 14.0647 24.1839Z" fill="#F78A68"/>
<path d="M9.54597 1.45816L13.9415 5.82961C12.1423 6.03469 10.5 6.75738 9.1681 7.84518L9.10347 1.64443C9.10124 1.41234 9.3815 1.29439 9.54597 1.45816Z" fill="#F78A68"/>
<path d="M7.84443 20.8311L1.64451 20.8957C1.41236 20.8979 1.29441 20.6177 1.45818 20.4532L5.82963 16.0577C6.03471 17.857 6.75664 19.4984 7.84443 20.8311Z" fill="#F78A68"/>
<path d="M1.56709 9.28008L7.77006 9.26203C6.69955 10.6075 5.99789 12.2595 5.81607 14.0647L1.3868 9.7248C1.22074 9.5625 1.3357 9.28084 1.56709 9.28008Z" fill="#F78A68"/>
<path d="M0.63172 9.15961C0.476798 9.54129 0.567091 9.97412 0.860998 10.2614L5.03949 14.3555C5.0259 14.5699 5.01822 14.7854 5.01822 15C5.01822 15.2593 5.02906 15.5194 5.04893 15.7773L0.925627 19.9232C0.63506 20.2153 0.550509 20.6491 0.710412 21.0286C0.869025 21.4051 1.23377 21.6469 1.6424 21.6469C1.64563 21.6469 1.64897 21.6469 1.65219 21.6469L7.50031 21.5859C7.81367 21.9425 8.15217 22.2766 8.5117 22.584L8.52869 28.4345C8.53004 28.8462 8.77731 29.2124 9.15852 29.3674C9.28268 29.418 9.41234 29.4425 9.54067 29.4425C9.80639 29.4425 10.0665 29.3372 10.2612 29.1389L14.3554 24.9604C14.5697 24.974 14.7852 24.9817 14.9998 24.9817C15.2592 24.9817 15.5196 24.9708 15.7779 24.951L19.9231 29.0742C20.1168 29.2671 20.3731 29.3692 20.6346 29.3692C20.7669 29.3692 20.9006 29.343 21.028 29.2893C21.408 29.1293 21.6508 28.7596 21.6468 28.3469L21.5859 22.4995C21.9426 22.1862 22.277 21.8474 22.5847 21.4874L28.4344 21.4703C28.846 21.469 29.2122 21.2218 29.3674 20.8406C29.5226 20.4593 29.4331 20.0266 29.1389 19.7377L24.9604 15.6436C24.974 15.4294 24.9816 15.2141 24.9816 14.9999C24.9816 14.7401 24.9707 14.4798 24.9508 14.2219L29.0741 10.076C29.3646 9.78416 29.4489 9.35051 29.2891 8.97094C29.1304 8.59418 28.7654 8.35219 28.3566 8.35219C28.3534 8.35219 28.35 8.35219 28.3467 8.35224L22.4983 8.41324C22.186 8.05746 21.8477 7.72324 21.4872 7.41469L21.4704 1.56463C21.4691 1.15277 21.2215 0.786561 20.8396 0.631581C20.458 0.476659 20.0251 0.567069 19.7379 0.860858L15.6436 5.03941C15.1712 5.00959 14.693 5.01269 14.2221 5.04896L10.076 0.925721C9.78412 0.634979 9.35018 0.550546 8.97061 0.710331C8.59098 0.870175 8.34834 1.23967 8.35233 1.65217L8.41332 7.50123C8.05625 7.81512 7.7225 8.15332 7.416 8.51162L1.56483 8.52867C1.15285 8.53019 0.786642 8.77775 0.63172 9.15961ZM5.36006 17.5952C5.59555 18.4727 5.95033 19.313 6.41539 20.0948L2.83707 20.1321L5.36006 17.5952ZM10.0278 27.2306L10.0174 23.6501C10.8056 24.1054 11.6513 24.4495 12.5331 24.6737L10.0278 27.2306ZM17.5957 24.6399C18.473 24.4043 19.313 24.0496 20.0947 23.5846L20.132 27.1627L17.5957 24.6399ZM23.6507 19.9818C24.1057 19.1938 24.4496 18.3482 24.6737 17.4662L27.2305 19.9714L23.6507 19.9818ZM24.6399 12.4041C24.4042 11.5264 24.0492 10.6861 23.5839 9.90451L27.1629 9.86724L24.6399 12.4041ZM19.9714 2.76943L19.9818 6.34892C19.1937 5.89406 18.3481 5.55023 17.4662 5.32617L19.9714 2.76943ZM15.8593 6.56349C17.4738 6.72615 18.9989 7.34613 20.2701 8.35687C20.7494 8.7375 21.1875 9.17021 21.573 9.64406C22.6004 10.9022 23.2405 12.4177 23.424 14.0266C23.424 14.0269 23.424 14.027 23.424 14.0272C23.4606 14.3464 23.4792 14.6737 23.4792 15C23.4792 15.2869 23.4648 15.5762 23.4364 15.8593C23.2738 17.4741 22.6535 18.9991 21.6419 20.2706C21.2629 20.7486 20.8305 21.1869 20.3561 21.5736C19.1002 22.5986 17.5883 23.2379 15.9833 23.4229C15.9796 23.4232 15.9758 23.4237 15.9721 23.4241C15.37 23.493 14.7435 23.4971 14.1399 23.4366C12.5257 23.274 11.0008 22.6535 9.72852 21.6413C9.25444 21.2655 8.8192 20.8365 8.43442 20.3658C8.42727 20.3568 8.42029 20.3477 8.41279 20.3389C7.3959 19.0866 6.76121 17.581 6.57717 15.9827C6.57682 15.9789 6.57641 15.9752 6.57594 15.9715C6.53938 15.6523 6.52074 15.3254 6.52074 15.0001C6.52074 14.7127 6.53516 14.4231 6.56358 14.1401C6.72611 12.5261 7.34656 11.001 8.35883 9.72873C8.73559 9.25324 9.16777 8.81543 9.64332 8.42713C10.8989 7.40185 12.4109 6.76224 14.0166 6.57726C14.0203 6.57691 14.0241 6.57644 14.0278 6.57598C14.6294 6.50701 15.2551 6.50297 15.8593 6.56349ZM12.404 5.3601C11.5264 5.5957 10.6862 5.95055 9.90447 6.41584L9.86715 2.83717L12.404 5.3601ZM6.34988 10.0174C5.89461 10.8057 5.55055 11.6513 5.32631 12.5331L2.76945 10.0278L6.34988 10.0174Z" fill="black"/>
<path d="M13.1655 17.3958C12.8084 17.607 12.6899 18.0676 12.9011 18.4248C13.0876 18.7402 13.3474 19.0139 13.6509 19.2152C14.0474 19.4795 14.5175 19.6176 14.9944 19.6176C15.177 19.6176 15.3606 19.5973 15.5415 19.5561C16.197 19.4068 16.7664 18.9946 17.1036 18.4254C17.3151 18.0684 17.1971 17.6076 16.8403 17.3961C16.4834 17.1847 16.0225 17.3025 15.811 17.6595C15.6829 17.8757 15.4631 18.0331 15.2078 18.0912C14.9512 18.1496 14.6941 18.1049 14.4829 17.964C14.3658 17.8864 14.2661 17.7813 14.1945 17.6601C13.9834 17.3031 13.5226 17.1846 13.1655 17.3958Z" fill="black"/>
<path d="M13.9348 14.5087C13.9348 13.104 12.792 11.9612 11.3873 11.9612C9.98216 11.9612 8.83911 13.104 8.83911 14.5087C8.83911 14.9235 9.17544 15.2599 9.59034 15.2599C10.0052 15.2599 10.3416 14.9235 10.3416 14.5087C10.3416 13.9325 10.8107 13.4637 11.3873 13.4637C11.9635 13.4637 12.4323 13.9325 12.4323 14.5087C12.4323 14.9235 12.7686 15.2599 13.1835 15.2599C13.5984 15.2599 13.9348 14.9235 13.9348 14.5087Z" fill="black"/>
<path d="M16.8541 15.2599C17.269 15.2599 17.6053 14.9235 17.6053 14.5087C17.6053 13.9325 18.0745 13.4637 18.651 13.4637C19.2272 13.4637 19.696 13.9325 19.696 14.5087C19.696 14.9235 20.0323 15.2599 20.4472 15.2599C20.8621 15.2599 21.1984 14.9235 21.1984 14.5087C21.1984 13.104 20.0556 11.9612 18.651 11.9612C17.2458 11.9612 16.1028 13.104 16.1028 14.5087C16.1028 14.9235 16.4391 15.2599 16.8541 15.2599Z" fill="black"/>
<path d="M15.9917 2.48133V0.75123C15.9917 0.336387 15.6553 0 15.2404 0C14.8255 0 14.4892 0.336387 14.4892 0.75123V2.48133C14.4892 2.89617 14.8255 3.23256 15.2404 3.23256C15.6553 3.23256 15.9917 2.89623 15.9917 2.48133Z" fill="black"/>
<path d="M2.48133 15.5101C2.89623 15.5101 3.23256 15.1737 3.23256 14.7589C3.23256 14.344 2.89623 14.0077 2.48133 14.0077H0.75123C0.336328 14.0076 0 14.344 0 14.7588C0 15.1736 0.336328 15.5101 0.75123 15.5101H2.48133V15.5101Z" fill="black"/>
<path d="M14.0076 27.5187V29.2488C14.0076 29.6636 14.3439 30 14.7588 30C15.1737 30 15.51 29.6636 15.51 29.2488V27.5187C15.51 27.1038 15.1737 26.7674 14.7588 26.7674C14.3439 26.7674 14.0076 27.1038 14.0076 27.5187Z" fill="black"/>
<path d="M22.9749 23.2961C22.6817 23.5896 22.6818 24.0653 22.9753 24.3586L23.7957 25.1782C23.9424 25.3247 24.1345 25.398 24.3267 25.398C24.519 25.398 24.7115 25.3245 24.8581 25.1777C25.1513 24.8842 25.1512 24.4085 24.8577 24.1152L24.0373 23.2956C23.7438 23.0023 23.2681 23.0026 22.9749 23.2961Z" fill="black"/>
<path d="M24.3583 7.02416L25.1779 6.20455C25.4712 5.91117 25.4712 5.43551 25.1779 5.14207C24.8845 4.84881 24.4088 4.84881 24.1154 5.14207L23.2958 5.96168C23.0024 6.25506 23.0024 6.73073 23.2958 7.02416C23.4425 7.17082 23.6347 7.24418 23.827 7.24418C24.0192 7.24418 24.2117 7.17082 24.3583 7.02416Z" fill="black"/>
<path d="M6.49293 6.92344C6.68518 6.92344 6.87749 6.85002 7.02415 6.70342C7.31752 6.41004 7.31758 5.93437 7.02415 5.64094L6.20454 4.82133C5.91116 4.52812 5.43549 4.52806 5.14211 4.82133C4.84874 5.11471 4.84868 5.59037 5.14211 5.88381L5.96172 6.70342C6.10838 6.85008 6.30063 6.92344 6.49293 6.92344Z" fill="black"/>
<path d="M5.64079 22.9753L4.82118 23.7957C4.52798 24.0892 4.52809 24.5649 4.82165 24.8582C4.96837 25.0047 5.16044 25.0779 5.35262 25.0779C5.54499 25.0779 5.73741 25.0045 5.88407 24.8577L6.70368 24.0373C6.99688 23.7438 6.99677 23.2681 6.70321 22.9748C6.40966 22.6816 5.93405 22.6819 5.64079 22.9753Z" fill="black"/>
<path d="M29.2488 14.4892H27.5187C27.1038 14.4892 26.7675 14.8256 26.7675 15.2404C26.7675 15.6553 27.1038 15.9916 27.5187 15.9916H29.2488C29.6637 15.9916 30 15.6553 30 15.2404C30 14.8256 29.6637 14.4892 29.2488 14.4892Z" fill="black"/>
<path d="M4.08148 4.51195C4.27378 4.51195 4.46603 4.43853 4.61275 4.29181C4.90613 3.99838 4.90601 3.52277 4.61269 3.22933L4.46093 3.07758C4.16755 2.78431 3.69195 2.78437 3.39851 3.07775C3.10513 3.37119 3.10525 3.84679 3.39857 4.14023L3.55033 4.29199C3.69699 4.43865 3.88923 4.51195 4.08148 4.51195Z" fill="black"/>
<path d="M3.22817 25.3879L3.07642 25.5404C2.78374 25.8346 2.78503 26.3102 3.07911 26.6029C3.22565 26.7487 3.41731 26.8215 3.60897 26.8215C3.80181 26.8215 3.99476 26.7478 4.14153 26.6002L4.29329 26.4476C4.58597 26.1535 4.58468 25.6779 4.2906 25.3852C3.99651 25.0925 3.52085 25.0937 3.22817 25.3879Z" fill="black"/>
<path d="M25.3867 25.7072C25.0932 26.0006 25.0932 26.4762 25.3866 26.7697L25.5391 26.9222C25.6858 27.0689 25.8781 27.1423 26.0704 27.1423C26.2626 27.1423 26.4549 27.0689 26.6015 26.9224C26.895 26.629 26.895 26.1534 26.6016 25.8599L26.4491 25.7074C26.1557 25.414 25.68 25.414 25.3867 25.7072Z" fill="black"/>
<path d="M26.7686 4.6139L26.9211 4.46209C27.2152 4.16941 27.2162 3.69375 26.9235 3.39966C26.6309 3.10558 26.1552 3.10453 25.8611 3.39726L25.7086 3.54908C25.4145 3.84175 25.4135 4.31742 25.7061 4.6115C25.8529 4.75898 26.0457 4.83275 26.2385 4.83275C26.4302 4.83269 26.622 4.7598 26.7686 4.6139Z" fill="black"/>
</g>
<defs>
<clipPath id="clip0_49_251">
<rect width="30" height="30" fill="white"/>
</clipPath>
</defs>
</svg>
