<svg width="60" height="60" viewBox="0 0 60 60" fill="none" xmlns="http://www.w3.org/2000/svg">
<g clip-path="url(#clip0_2026_29)">
<path d="M14.5312 0.902344C10.9336 1.28906 7.60547 2.85938 4.96875 5.41406C2.57812 7.73438 1.10156 10.3828 0.316406 13.7695C0.0703125 14.8125 0.0703125 15.0352 0.0351562 32.7773L-0.0117188 50.7305L0.339844 51.1172L0.679688 51.5039L12.1172 51.5391L23.5547 51.5625V53.0625C23.5547 53.9297 23.625 54.7969 23.7188 55.1367C24.2344 57.0703 25.6641 58.5 27.6211 59.0039C28.6289 59.2617 54.9258 59.2617 55.9336 59.0039C57.9141 58.4883 59.3086 57.0938 59.8242 55.1133C60.0703 54.1875 60.0703 50.2852 59.8359 49.8164C59.6367 49.4531 59.2031 49.2188 58.7109 49.2188H58.3594V41.0156C58.3594 33.1172 58.3477 32.8008 58.125 32.1914C57.668 30.9609 56.4258 30.0703 55.1719 30.0586C54.5859 30.0586 54.457 30.1055 54.1758 30.375C53.6953 30.8555 53.7188 31.5469 54.2344 32.0039C54.4805 32.2266 54.7383 32.3438 54.9727 32.3438C55.207 32.3438 55.4414 32.4609 55.6758 32.6836L56.0156 33.0234V41.1211V49.2188H51.7969H47.5781L47.2031 49.5586C46.8516 49.875 46.8164 49.957 46.7812 50.7891L46.7344 51.6797H41.7773H36.832L36.7734 50.7773C36.7148 49.9453 36.6797 49.8516 36.3398 49.5469L35.9766 49.2188H31.7578H27.5391V41.1211V33.0234L27.8789 32.6836L28.2188 32.3438H36.4336H44.6484L45.0234 32.0039C45.5391 31.5469 45.5625 30.8555 45.082 30.375L44.7656 30.0586L38.5547 30.0234L32.3438 29.9883V22.6875C32.3438 14.8125 32.332 14.543 31.6992 12.3633C30.5977 8.57812 27.7148 4.94531 24.1992 2.92969C21.4219 1.34766 17.6953 0.5625 14.5312 0.902344ZM19.2188 3.50391C22.5586 4.26562 25.6289 6.32812 27.5508 9.10547C28.3594 10.2891 29.2383 12.1758 29.625 13.5586L29.9297 14.707L29.9766 22.3359L30.0117 29.9766L28.8633 30.0234C27.5273 30.082 26.8828 30.3164 26.2148 30.9844C25.6289 31.5703 25.3008 32.2617 25.2305 33.0703L25.1602 33.75H22.8984H20.625V32.8945V32.0508L21.4805 31.6172C23.9062 30.3633 25.8633 28.0547 26.6133 25.5469C26.8711 24.7148 26.8828 24.4336 26.9297 19.8984C26.9766 14.0977 27.0352 14.3086 25.4883 14.1211C23.8711 13.9219 23.0391 13.3711 21.8672 11.6719C20.918 10.3242 20.7188 10.1367 20.1797 10.1484C19.8398 10.1484 19.4648 10.3477 18.4453 11.0391C15.2109 13.2539 12.0117 14.168 7.52344 14.1797H6.07031L5.73047 14.5312L5.37891 14.8828L5.41406 19.8281C5.46094 24.6562 5.46094 24.8086 5.73047 25.6055C6.31641 27.375 7.40625 29.0391 8.68359 30.1289C9.41016 30.75 10.7812 31.6406 11.3438 31.8633C11.7188 32.0156 11.7188 32.0156 11.7188 32.8711V33.7266L8.35547 33.7734C5.23828 33.8203 4.92188 33.8555 4.21875 34.0898C3.79688 34.2422 3.19922 34.5117 2.89453 34.6992L2.33203 35.0391L2.36719 24.9961L2.41406 14.9414L2.71875 13.8164C3.32812 11.5898 4.11328 9.99609 5.37891 8.41406C7.59375 5.63672 10.8398 3.77344 14.3203 3.28125C15.457 3.11719 18.0703 3.23438 19.2188 3.50391ZM20.3086 13.5586C21.2695 14.8594 22.3125 15.6445 23.6953 16.1016L24.5508 16.3945L24.5859 19.9453C24.6211 24.0352 24.5508 24.668 23.9062 26.0039C23.1211 27.6328 21.0703 29.4609 19.4883 29.9648C18.3867 30.3047 18.3516 30.4102 18.2812 32.7305L18.2227 34.7461L17.2031 36.3047L16.1836 37.875L15.1523 36.3047L14.1211 34.7461L14.0625 32.7422C13.9922 30.3984 14.0039 30.4102 12.8203 29.9648C11.1328 29.3086 9.1875 27.5977 8.47266 26.1211C7.80469 24.7617 7.73438 24.2461 7.73438 20.1797V16.5234H8.35547C10.2773 16.5234 12.9258 16.0898 14.8008 15.4688C15.9727 15.0703 18.375 13.9336 19.2188 13.3711C19.5117 13.1836 19.7812 13.0195 19.8281 13.0195C19.8633 13.0078 20.0859 13.2539 20.3086 13.5586ZM13.793 38.4961C14.6484 39.7852 15.4336 40.8984 15.5508 40.9805C15.8203 41.1914 16.5352 41.168 16.8398 40.957C16.9805 40.8633 17.707 39.8203 18.4688 38.6484C19.2188 37.4648 19.9219 36.4102 20.0156 36.293C20.1797 36.1055 20.4258 36.0938 22.6641 36.1172L25.1367 36.1523L25.1719 42.6797L25.1953 49.2188H13.7695H2.33203L2.36719 44.0273C2.40234 38.8594 2.40234 38.8477 2.68359 38.2969C3.01172 37.6289 3.75 36.8672 4.35938 36.5508C5.07422 36.1875 5.85938 36.1172 9.14062 36.1406L12.2461 36.1523L13.793 38.4961ZM34.4531 52.4531C34.4531 53.2734 34.4766 53.3672 34.793 53.6836L35.1328 54.0234H41.7773H48.4219L48.7617 53.6836C49.0781 53.3672 49.1016 53.2734 49.1016 52.4531V51.5625H53.3906H57.6797L57.6328 53.1094C57.6094 54.3633 57.5508 54.7617 57.375 55.125C57.082 55.7109 56.5312 56.2617 55.9453 56.5547C55.5 56.7656 55.0664 56.7773 41.9531 56.8125C26.7656 56.8477 27.75 56.8945 26.8008 55.9688C26.0742 55.2773 25.8984 54.668 25.8984 52.9453V51.5625H30.1758H34.4531V52.4531Z" fill="white"/>
<path d="M10.7461 19.4648C10.4062 19.6641 10.1953 20.2266 10.1953 20.918C10.1953 21.7266 10.4414 22.2305 10.9336 22.4414C11.4375 22.6523 11.8945 22.5469 12.2461 22.125C12.5039 21.8203 12.5391 21.668 12.5391 20.8945C12.5391 20.0859 12.5156 19.9922 12.1992 19.6758C11.9297 19.418 11.7422 19.3359 11.4023 19.3359C11.1562 19.3359 10.8633 19.3945 10.7461 19.4648Z" fill="white"/>
<path d="M20.3555 19.4648C20.0156 19.6641 19.8047 20.2266 19.8047 20.918C19.8047 21.7266 20.0508 22.2305 20.543 22.4414C21.0469 22.6523 21.5039 22.5469 21.8555 22.125C22.1133 21.8203 22.1484 21.668 22.1484 20.8945C22.1484 20.0859 22.125 19.9922 21.8086 19.6758C21.5391 19.418 21.3516 19.3359 21.0117 19.3359C20.7656 19.3359 20.4727 19.3945 20.3555 19.4648Z" fill="white"/>
<path d="M14.5547 25.1016C14.1562 25.207 13.7109 25.7695 13.7109 26.168C13.7109 26.8477 14.5195 27.5625 15.5508 27.7852C17.2383 28.1602 18.9727 26.9531 18.4688 25.7461C18.1758 25.0312 17.3203 24.832 16.6523 25.3008C16.2305 25.6055 16.0547 25.6055 15.6914 25.3359C15.3164 25.043 15.0117 24.9844 14.5547 25.1016Z" fill="white"/>
<path d="M49.1602 30.1055C48.7266 30.293 48.457 30.7031 48.457 31.1953C48.457 31.582 48.5273 31.7227 48.8437 32.0039C49.3594 32.4727 49.9336 32.4727 50.4023 32.0039C51.2812 31.1133 50.3203 29.6367 49.1602 30.1055Z" fill="white"/>
<path d="M42.4102 38.0156C42.0352 38.3906 39.2578 45.7031 39.2578 46.3125C39.2578 47.2031 40.5234 47.707 41.1445 47.0625C41.4844 46.7109 44.2969 39.3516 44.2969 38.8125C44.2969 37.8984 43.0547 37.3711 42.4102 38.0156Z" fill="white"/>
<path d="M35.2266 38.1094C34.7227 38.5664 32.6953 42.0469 32.6953 42.4688C32.6953 42.8906 34.7461 46.5352 35.2266 46.957C35.8125 47.4844 36.75 47.2148 37.043 46.4414C37.1953 46.0313 37.1367 45.8555 36.1289 44.0977C35.5664 43.1016 35.2734 42.4688 35.3203 42.3516C35.3672 42.2461 35.7422 41.5781 36.1641 40.8867C36.5742 40.1953 36.9727 39.4688 37.043 39.2813C37.3945 38.2617 36.0352 37.3945 35.2266 38.1094Z" fill="white"/>
<path d="M46.8399 38.1328C46.1836 38.7422 46.2656 39.0703 47.5664 41.1914C47.9531 41.8242 48.2813 42.4102 48.2813 42.4805C48.2813 42.5391 47.8828 43.2773 47.4024 44.0977C46.3711 45.8789 46.3477 45.9375 46.5234 46.4531C46.7695 47.2148 47.7422 47.4844 48.3281 46.957C48.7852 46.5586 50.8594 42.8672 50.8594 42.4687C50.8594 42.0703 48.6563 38.3086 48.2578 38.0273C47.8594 37.7578 47.1914 37.8047 46.8399 38.1328Z" fill="white"/>
</g>
<defs>
<clipPath id="clip0_2026_29">
<rect width="60" height="60" fill="white"/>
</clipPath>
</defs>
</svg>
